<?xml version="1.0" standalone="no"?>
<!DOCTYPE svg PUBLIC "-//W3C//DTD SVG 1.1//EN" "http://www.w3.org/Graphics/SVG/1.1/DTD/svg11.dtd" >
<svg xmlns="http://www.w3.org/2000/svg">
<metadata>
This is a custom SVG webfont generated by Font Squirrel.
Copyright   : Copyright c 1990 1991 Adobe Systems Incorporated  All Rights ReservedHelvetica is a trademark of Linotype AG andor its subsidiaries
</metadata>
<defs>
<font id="HelveticaRoundedBold" horiz-adv-x="1251" >
<font-face units-per-em="2048" ascent="1638" descent="-410" />
<missing-glyph horiz-adv-x="626" />
<glyph unicode=" "  horiz-adv-x="626" />
<glyph unicode="&#x09;" horiz-adv-x="626" />
<glyph unicode="&#xa0;" horiz-adv-x="626" />
<glyph unicode="!" horiz-adv-x="647" d="M156 153.5q0 69.5 49 119t118.5 49.5t119 -49.5t49.5 -119t-49.5 -118.5t-119 -49t-118.5 49t-49 118.5zM162 1106v237q0 158 161.5 158t161.5 -158v-237q0 -31 -8 -96l-63 -480q-6 -43 -27.5 -59t-62.5 -16t-62.5 16t-28.5 59l-63 480q-8 65 -8 96z" />
<glyph unicode="&#x22;" horiz-adv-x="1099" d="M217 1024v334q0 63 37 103t98.5 40t98 -40t36.5 -103v-334q0 -63 -36.5 -103t-98 -40t-98.5 40t-37 103zM612 1024v334q0 63 37 103t98.5 40t98.5 -40t37 -103v-334q0 -63 -37 -103t-98.5 -40t-98.5 40t-37 103z" />
<glyph unicode="#" horiz-adv-x="1253" d="M106 494q0 41 25 69.5t74 28.5h106l33 246h-78q-49 0 -73.5 28.5t-24.5 69.5t24.5 69.5t73.5 28.5h107l43 316q14 106 114 106q39 0 67 -23.5t28 -60.5q0 -12 -7 -72l-36 -266h180l43 316q14 106 115 106q39 0 66.5 -23.5t27.5 -60.5q0 -12 -6 -72l-37 -266h78 q49 0 73.5 -28.5t24.5 -69.5t-24.5 -69.5t-73.5 -28.5h-107l-33 -246h78q49 0 73.5 -28.5t24.5 -69.5t-24.5 -70t-73.5 -29h-106l-43 -315q-14 -106 -115 -107q-39 0 -66.5 23.5t-27.5 60.5q0 12 6 72l37 266h-180l-43 -315q-14 -106 -115 -107q-39 0 -66.5 23.5t-27.5 60.5 q0 12 6 72l37 266h-78q-49 0 -74 29t-25 70zM520 592h180l33 246h-180z" />
<glyph unicode="$" horiz-adv-x="1253" d="M51 350q0 61 34 95t93 34q53 0 85 -21.5t43 -53t26.5 -68.5t35 -70t70.5 -56.5t131 -27.5v428q-487 88 -487 416q0 199 141.5 311.5t345.5 118.5v47q0 27 18.5 48.5t43 21.5t43 -21.5t18.5 -48.5v-47q63 -2 143 -22.5t159 -56.5t132.5 -95t53.5 -131q0 -57 -37 -92 t-92 -35q-43 0 -80 35t-63.5 76t-83 75.5t-132.5 36.5v-389q119 -25 197 -51.5t156.5 -76.5t117.5 -131t39 -193q0 -201 -136 -309.5t-374 -123.5v-127q0 -27 -18.5 -48t-43 -21t-43 21.5t-18.5 47.5v127q-242 6 -380 123t-138 254zM340 1073q0 -147 229 -192v366 q-100 -2 -164.5 -54t-64.5 -120zM692 182q104 6 178 56.5t74 144.5q0 49 -22.5 86t-64.5 60.5t-78 34.5t-87 24v-406z" />
<glyph unicode="%" horiz-adv-x="2048" d="M162 1065q0 178 84 284.5t260 106.5t260 -106.5t84 -284.5t-84 -284.5t-260 -106.5t-260 106.5t-84 284.5zM383 1065q0 -231 123 -231t123 231t-123 231t-123 -231zM565 -10q0 29 23 69l737 1393q31 57 80 57q33 0 56.5 -21.5t23.5 -47.5q0 -29 -23 -70l-737 -1393 q-31 -57 -80 -57q-33 0 -56.5 21.5t-23.5 48.5zM1198 364.5q0 178.5 84 285t260 106.5t260 -106.5t84 -285t-84 -285t-260 -106.5t-260 106.5t-84 285zM1419 364.5q0 -231.5 123 -231.5t123 231.5t-123 231.5t-123 -231.5z" />
<glyph unicode="&#x26;" horiz-adv-x="1441" d="M90 381q0 293 322 450q-70 78 -106 143.5t-36 149.5q0 170 119 267.5t291 97.5q115 0 202 -34t133 -88t67.5 -113.5t21.5 -120.5q0 -117 -70.5 -215.5t-185.5 -153.5l205 -240l24 49q16 33 29.5 57.5t26.5 41.5q47 63 106 63q51 0 92 -34.5t41 -82.5q0 -53 -47 -137 t-104 -137l122 -147q29 -35 29 -82q0 -51 -42 -90t-111 -39q-51 0 -101 57l-94 109q-184 -178 -475 -179q-225 0 -342 122t-117 286zM389 406q0 -88 54.5 -143.5t146.5 -55.5q131 0 270 125l-268 317q-203 -112 -203 -243zM541 1149q0 -49 21.5 -90t44 -63.5t71.5 -63.5 q51 31 76.5 49t58.5 64.5t33 99.5q0 55 -44 95t-109.5 40t-108.5 -38t-43 -93z" />
<glyph unicode="'" horiz-adv-x="647" d="M188 1024v334q0 63 37 103t98.5 40t98.5 -40t37 -103v-334q0 -63 -37 -103t-98.5 -40t-98.5 40t-37 103z" />
<glyph unicode="(" horiz-adv-x="681" d="M137 549q0 307 146 653q86 203 124.5 255t94.5 52q45 0 75.5 -27.5t30.5 -66.5q0 -33 -46 -160t-92 -319.5t-46 -387t46 -387t92 -319.5t46 -159q0 -39 -30.5 -67t-75.5 -28q-55 0 -94 52.5t-125 255.5q-146 346 -146 653z" />
<glyph unicode=")" horiz-adv-x="681" d="M74 -317q0 33 46 159.5t92 319t46 387t-46 387t-92 319.5t-46 160q0 39 30.5 66.5t75.5 27.5q55 0 94 -52t125 -255q145 -346 145.5 -653t-145.5 -653q-86 -203 -124.5 -255.5t-94.5 -52.5q-45 0 -75.5 28t-30.5 67z" />
<glyph unicode="*" horiz-adv-x="950" d="M92 1204q0 43 29 67.5t55 24.5q20 0 53 -12l160 -57v182q0 92 86 92t86 -92v-182l160 57q33 12 53 12q27 0 55.5 -24.5t28.5 -67.5q0 -59 -72 -80l-180 -53l123 -160q25 -31 25 -59q0 -45 -32 -65.5t-60 -20.5q-49 0 -70 33l-117 174l-117 -174q-20 -33 -69 -33 q-29 0 -60.5 20.5t-31.5 65.5q0 29 24 59l123 160l-180 53q-72 21 -72 80z" />
<glyph unicode="+" horiz-adv-x="1228" d="M35 580q0 55 40 88.5t103 33.5h314v314q0 63 33.5 103t89 40t89 -40t33.5 -103v-314h314q63 0 103 -33.5t40 -89t-40 -89t-103 -33.5h-314v-314q0 -63 -33.5 -103t-89 -40t-89 40t-33.5 103v314h-314q-61 0 -102 37t-41 86z" />
<glyph unicode="," horiz-adv-x="626" d="M145 154q0 70 49.5 119t118.5 49q94 0 143.5 -73t49.5 -186q0 -98 -25.5 -158.5t-79.5 -115.5q-29 -27 -86 -57.5t-100 -30.5q-33 0 -51.5 17.5t-18.5 43.5q0 29 33 48.5t72 33t73.5 56.5t38.5 114q-33 -18 -69 -18q-68 0 -108 46t-40 112z" />
<glyph unicode="-" horiz-adv-x="833" d="M82 565.5q0 141.5 166 141.5h338q166 0 166 -141.5t-166 -141.5h-338q-166 0 -166 141.5z" />
<glyph unicode="." horiz-adv-x="626" d="M145 153.5q0 69.5 49.5 119t119 49.5t118.5 -49.5t49 -119t-49 -118.5t-118.5 -49t-119 49t-49.5 118.5z" />
<glyph unicode="/" horiz-adv-x="757" d="M16 70q0 23 17 67l489 1288q31 84 113 84q39 0 72.5 -29.5t33.5 -74.5q0 -23 -16 -68l-489 -1288q-31 -84 -113 -84q-39 0 -73 30t-34 75z" />
<glyph unicode="0" horiz-adv-x="1253" d="M80 733q0 354 145.5 538.5t401.5 184.5t401.5 -184.5t145.5 -538.5q0 -117 -15.5 -219t-53.5 -203.5t-98.5 -174.5t-157.5 -118t-222 -45t-222.5 45t-158 118t-98 174.5t-53 203.5t-15.5 219zM379 715q0 -266 62.5 -381t185.5 -115t185 115t62 381q0 496 -247.5 496 t-247.5 -496z" />
<glyph unicode="1" horiz-adv-x="833" d="M-18 1040q0 55 31.5 78t115.5 39l76 17q76 16 124 64t65.5 95t54 85t94.5 38q119 0 119 -139v-1163q0 -180 -156 -180.5t-156 180.5v778h-264q-53 0 -78.5 23.5t-25.5 84.5z" />
<glyph unicode="2" horiz-adv-x="1214" d="M63 152q0 225 386 469q37 23 97 60.5t83.5 53t63.5 43t54.5 42t37 38t28.5 43t12 46t6 57.5q0 96 -62 151t-153 55q-102 0 -166.5 -49t-97.5 -168q-16 -61 -43.5 -87.5t-85.5 -26.5q-150 0 -149 137q0 186 159.5 313t387.5 127q231 0 376.5 -125t145.5 -278 q0 -190 -80 -295t-262 -207q-201 -115 -291 -177.5t-109 -115.5h615q135 0 135 -129t-152 -129h-768q-82 0 -125 45.5t-43 106.5z" />
<glyph unicode="3" horiz-adv-x="1214" d="M63 328q0 63 41 103t105 40q43 0 71.5 -18.5t42 -47t33 -60.5t40 -60.5t67.5 -47t112 -18.5q113 0 174.5 61.5t61.5 159.5q0 166 -184 185q-33 4 -52.5 7t-52.5 14t-49 33.5t-16 55.5q0 76 42 103.5t136 31.5q156 10 156 160q0 88 -58.5 134t-146.5 46q-68 0 -115 -23.5 t-70.5 -58t-43 -69.5t-49 -58.5t-75.5 -23.5q-59 0 -98 29.5t-39 93.5q0 117 85 201.5t193.5 119.5t217.5 35q248 0 366.5 -114.5t118.5 -282.5q0 -193 -174 -287q219 -61 219 -319q0 -231 -156.5 -355.5t-396.5 -124.5q-135 0 -239.5 38t-158.5 96.5t-81 115t-27 105.5z " />
<glyph unicode="4" d="M27 469q0 70 39 121l630 809q43 57 133 57q154 0 154 -147v-748h102q51 0 83 -32.5t32 -84t-31.5 -84t-83.5 -32.5h-102v-211q0 -143 -143.5 -143.5t-143.5 143.5v211h-514q-74 0 -114.5 43t-40.5 98zM297 561h399v531h-4z" />
<glyph unicode="5" horiz-adv-x="1214" d="M66 264q0 61 40.5 101.5t106.5 40.5q41 0 76 -31t60.5 -69t78.5 -68.5t127 -30.5q113 0 187.5 79t74.5 183q0 125 -76.5 188.5t-199.5 63.5q-88 0 -179.5 -50t-134.5 -50q-61 0 -101 33.5t-40 101.5q0 51 10 108l74 436q10 53 46 91.5t85 38.5h614q135 0 135.5 -129.5 t-130.5 -129.5h-523l-55 -307l4 -4q109 94 285 94q205 0 345 -122.5t140 -348.5q0 -242 -156.5 -376t-408.5 -134q-240 0 -362.5 95.5t-122.5 195.5z" />
<glyph unicode="6" horiz-adv-x="1253" d="M80 635q0 436 157.5 628.5t458.5 192.5q174 0 292 -82t118 -182q0 -55 -38 -94t-91 -39q-45 0 -82 27.5t-60.5 60.5t-66.5 60.5t-98 27.5q-147 0 -219 -117t-72 -278v-37q137 131 319 131q223 0 349.5 -129t126.5 -324q0 -244 -148.5 -376t-382.5 -132q-125 0 -224.5 38 t-161.5 101.5t-103 150.5t-57.5 178.5t-16.5 193.5zM397 461q0 -119 64.5 -186.5t175.5 -67.5t174 67.5t63 186.5q0 125 -65.5 188.5t-171.5 63.5q-104 0 -172 -67.5t-68 -184.5z" />
<glyph unicode="7" horiz-adv-x="1175" d="M20 1300.5q0 129.5 136 129.5h831q141 0 141 -148q0 -43 -35.5 -91t-97 -121t-130 -177.5t-147.5 -303t-136 -454.5q-20 -94 -51 -128t-101 -34q-150 0 -149 156q0 162 173 516t359 526h-661q-132 0 -132 129.5z" />
<glyph unicode="8" horiz-adv-x="1253" d="M80 432q0 121 59.5 209t171.5 125q-88 41 -139 123t-51 178q0 172 136 280.5t369.5 108.5t370 -108.5t136.5 -280.5q0 -96 -51.5 -178t-139.5 -123q113 -37 172.5 -125t59.5 -209q0 -123 -49.5 -216t-131.5 -144.5t-174 -75t-192.5 -23.5t-192.5 23.5t-174 75t-131 144.5 t-49 216zM379 430q0 -104 68.5 -163.5t179 -59.5t179 59.5t68.5 163.5q0 84 -61 158t-186 74t-186.5 -74t-61.5 -158zM408 1047q0 -92 60 -140.5t158.5 -48.5t159 48t60.5 141q0 88 -61.5 138t-158 50t-157.5 -50t-61 -138z" />
<glyph unicode="9" horiz-adv-x="1253" d="M80 948q0 244 148.5 376t381.5 132q125 0 224.5 -38t162 -101.5t103.5 -150.5t57.5 -178t16.5 -193q0 -436 -158 -629t-459 -193q-174 0 -292 82t-118 183q0 55 38 94t91 39q45 0 82 -28t60.5 -60.5t66.5 -60t99 -27.5q147 0 218.5 116.5t71.5 278.5v37 q-137 -131 -319 -131q-223 0 -349 128.5t-126 323.5zM379 969q0 -125 65.5 -188.5t171.5 -63.5q104 0 172 67.5t68 184.5q0 119 -64.5 186.5t-175 67.5t-174 -67.5t-63.5 -186.5z" />
<glyph unicode=":" horiz-adv-x="626" d="M145 153.5q0 69.5 49.5 119t119 49.5t118.5 -49.5t49 -119t-49 -118.5t-118.5 -49t-119 49t-49.5 118.5zM145 903.5q0 69.5 49.5 118.5t119 49t118.5 -49t49 -118.5t-49 -119t-118.5 -49.5t-119 49.5t-49.5 119z" />
<glyph unicode=";" horiz-adv-x="626" d="M145 154q0 70 49.5 119t118.5 49q94 0 143.5 -73t49.5 -186q0 -98 -25.5 -158.5t-79.5 -115.5q-29 -27 -86 -57.5t-100 -30.5q-33 0 -51.5 17.5t-18.5 43.5q0 29 33 48.5t72 33t73.5 56.5t38.5 114q-33 -18 -69 -18q-68 0 -108 46t-40 112zM145 903.5q0 69.5 49.5 118.5 t119 49t118.5 -49t49 -118.5t-49 -119t-118.5 -49.5t-119 49.5t-49.5 119z" />
<glyph unicode="&#x3c;" horiz-adv-x="1228" d="M47 579.5q0 79.5 76 116.5l833 383q59 29 113 29q49 0 81 -30.5t32 -80.5q0 -88 -97 -129l-659 -288l659 -289q96 -41 97 -129q0 -49 -32 -80t-81 -31q-53 0 -113 29l-833 383q-76 37 -76 116.5z" />
<glyph unicode="=" horiz-adv-x="1228" d="M35 338q0 55 40 89t103 34h873q63 0 103 -34t40 -89t-40 -89t-103 -34h-873q-61 0 -102 37t-41 86zM35 821q0 55 40 89t103 34h873q63 0 103 -33.5t40 -89t-40 -89.5t-103 -34h-873q-61 0 -102 37t-41 86z" />
<glyph unicode="&#x3e;" horiz-adv-x="1228" d="M47 162q0 88 96 129l660 289l-660 288q-96 41 -96 129q0 49 32 80t81 31q53 0 112 -29l834 -383q76 -37 76 -116.5t-76 -116.5l-834 -383q-59 -29 -112 -29q-49 0 -81 31t-32 80z" />
<glyph unicode="?" horiz-adv-x="1175" d="M88 1122q0 150 145.5 264.5t333.5 114.5q217 0 368.5 -103.5t151.5 -305.5q0 -92 -50 -172t-110.5 -125t-126 -93.5t-83.5 -74.5q-12 -18 -31.5 -71.5t-47.5 -77t-89.5 -23.5t-96 42t-34.5 95q0 82 56 152.5t123 113.5t123 105.5t56 128.5q0 82 -52 129t-144 47 q-72 0 -118 -28t-65.5 -67.5t-37 -79.5t-50.5 -68t-88 -28q-57 0 -95 33t-38 92zM389 153.5q0 69.5 49 119t119 49.5t119 -49.5t49 -119t-49 -118.5t-119 -49t-119 49t-49 118.5z" />
<glyph unicode="@" horiz-adv-x="1638" d="M61 735q0 330 231.5 552t563.5 222q303 0 512 -175t209 -460q0 -162 -62.5 -285.5t-152.5 -185t-169 -90t-134 -28.5q-121 0 -123 104h-4q-90 -104 -213 -104q-129 0 -215 103.5t-86 256.5q0 207 116.5 348.5t272.5 141.5q92 0 150.5 -31t103.5 -96l8 36q16 74 98 74 q39 0 64.5 -23.5t25.5 -64.5q0 -20 -8 -59l-63 -357q-12 -55 -12 -73q0 -41 38 -41q66 0 123.5 82t57.5 233q0 242 -149.5 376t-393.5 134q-236 0 -401.5 -173t-165.5 -417q0 -268 165.5 -426.5t419.5 -158.5q104 0 187.5 21.5t123.5 46t74.5 46t55.5 21.5q31 0 54 -23.5 t23 -56.5q0 -80 -179 -160t-339 -80q-338 0 -572.5 218t-234.5 552zM639 688q0 -86 46 -134t118 -48q86 0 142 66.5t56 164.5q0 80 -40.5 128t-116.5 48q-88 0 -146.5 -66.5t-58.5 -158.5z" />
<glyph unicode="A" horiz-adv-x="1366" d="M18 121q0 41 33 129l434 1149q39 102 164 102h80q137 0 180 -123l406 -1128q33 -88 33 -129q0 -61 -46.5 -104.5t-111.5 -43.5q-117 0 -152 93l-86 245h-540l-88 -245q-31 -92 -150 -93q-70 0 -113 40t-43 108zM485 545h394l-191 592h-4z" />
<glyph unicode="B" horiz-adv-x="1478" d="M156 197v1081q0 106 50 151.5t146 45.5h447q539 0 538 -381q0 -98 -53 -178t-154 -121v-4q258 -68 259 -355q0 -219 -154 -327.5t-389 -108.5h-494q-96 0 -146 45.5t-50 151.5zM492 258h282q279 0 279 197q0 84 -49.5 131t-112 58t-158.5 11h-241v-397zM492 868h276 q233 0 233 180.5t-243 180.5h-266v-361z" />
<glyph unicode="C" horiz-adv-x="1478" d="M109 737q0 213 78.5 385t245.5 279.5t396 107.5q264 0 430 -129t166 -256q0 -72 -38.5 -111.5t-112.5 -39.5q-53 0 -90 27.5t-62.5 66.5t-57.5 78t-90.5 66.5t-144.5 27.5q-164 0 -274.5 -135t-110.5 -367q0 -221 96.5 -361t301.5 -140q74 0 129 28.5t88 70.5t60.5 84 t63.5 70.5t79 28.5q66 0 114.5 -34.5t48.5 -94.5q0 -164 -172 -294t-411 -130q-350 0 -541.5 197.5t-191.5 574.5z" />
<glyph unicode="D" horiz-adv-x="1554" d="M156 197v1081q0 106 50 151.5t146 45.5h410q117 0 215 -20.5t190.5 -73t155.5 -134.5t102 -212t39 -298q0 -350 -186 -543.5t-522 -193.5h-404q-96 0 -146 45.5t-50 151.5zM492 270h282q127 0 210 72t113.5 172t30.5 223q0 223 -88 345t-268 122h-280v-934z" />
<glyph unicode="E" horiz-adv-x="1402" d="M164 197v1081q0 106 50 151.5t146 45.5h789q170 0 170 -135.5t-170 -135.5h-649v-319h569q158 0 158 -129t-158 -129h-569v-357h665q170 0 170 -135t-170 -135h-805q-96 0 -146 45.5t-50 151.5z" />
<glyph unicode="F" horiz-adv-x="1290" d="M164 141v1137q0 106 50 151.5t146 45.5h740q170 0 170 -135.5t-170 -135.5h-600v-344h508q158 0 157.5 -129t-157.5 -129h-508v-461q0 -76 -46 -122t-122 -46t-122 46t-46 122z" />
<glyph unicode="G" horiz-adv-x="1669" d="M109 737q0 367 208.5 569.5t559.5 202.5q254 0 412.5 -118.5t158.5 -235.5q0 -80 -46 -113.5t-112 -33.5q-45 0 -75.5 23.5t-54 57t-54.5 68.5t-94.5 58.5t-153.5 23.5q-186 0 -300 -129t-114 -395q0 -223 109 -357.5t309 -134.5q137 0 237.5 84t112.5 217h-219 q-152 0 -151 129q0 61 33.5 95t97.5 34h413q137 0 138 -141v-555q0 -47 -33 -80t-82 -33q-70 0 -98.5 43t-44.5 148q-158 -199 -439 -199q-188 0 -330.5 61.5t-225.5 170t-122.5 243.5t-39.5 297z" />
<glyph unicode="H" horiz-adv-x="1593" d="M156 141v1192q0 76 46 122t121.5 46t122 -46t46.5 -122v-418h610v418q0 76 46 122t122 46t122 -46t46 -122v-1192q0 -76 -46 -122t-122 -46t-122 46.5t-46 121.5v492h-610v-492q0 -76 -46.5 -122t-122 -46t-121.5 46t-46 122z" />
<glyph unicode="I" horiz-adv-x="647" d="M156 141v1192q0 76 46 122t121.5 46t122 -46t46.5 -122v-1192q0 -76 -46.5 -122t-122 -46t-121.5 46t-46 122z" />
<glyph unicode="J" horiz-adv-x="1175" d="M37 379q0 94 42 149.5t118 55.5q152 0 151 -195q0 -166 164 -166q172 0 172 242v868q0 76 46 122t122 46t122 -46t46 -122v-872q0 -236 -129 -366t-375 -130q-141 0 -242.5 43t-149.5 111.5t-67.5 132.5t-19.5 127z" />
<glyph unicode="K" horiz-adv-x="1402" d="M156 141v1192q0 76 46 122t121.5 46t122 -46t46.5 -122v-487l528 581q70 74 133.5 74t111.5 -37t48 -98q0 -59 -56 -115l-344 -362l408 -621q63 -98 63 -133q0 -86 -50 -124t-122 -38q-53 0 -84.5 18.5t-64.5 69.5l-387 598l-184 -184v-334q0 -76 -46.5 -122t-122 -46 t-121.5 46t-46 122z" />
<glyph unicode="L" d="M156 197v1136q0 76 46 122t121.5 46t122 -46t46.5 -122v-1050h561q76 0 125 -37t49 -104.5t-49.5 -104.5t-124.5 -37h-701q-96 0 -146 45.5t-50 151.5z" />
<glyph unicode="M" horiz-adv-x="1818" d="M150 137v1198q0 166 182 166h98q78 0 120 -34.5t68 -118.5l293 -947h4l289 947q27 84 69 118.5t120 34.5h94q182 0 182 -166v-1198q0 -70 -37 -117t-112.5 -47t-112.5 47.5t-37 116.5v914h-4l-313 -979q-33 -98 -143.5 -98.5t-143.5 98.5l-313 979h-4v-914 q0 -70 -37 -117t-113 -47t-112.5 47t-36.5 117z" />
<glyph unicode="N" horiz-adv-x="1593" d="M150 135v1170q0 102 51 149t159 47q115 0 168 -88l588 -948h4v874q0 162 162 162t162 -162v-1157q0 -209 -199 -209q-78 0 -114.5 18.5t-69.5 71.5l-584 922h-4v-850q0 -162 -161.5 -162t-161.5 162z" />
<glyph unicode="O" horiz-adv-x="1671" d="M90 756q0 334 196.5 543.5t549 209.5t549 -209.5t196.5 -543.5q0 -160 -47 -300.5t-136 -251t-234.5 -175t-327.5 -64.5q-377 0 -561.5 217.5t-184.5 573.5zM426 756q0 -520 410 -520q215 0 312 143t97 377q0 219 -105.5 351t-304 132t-304 -132t-105.5 -351z" />
<glyph unicode="P" horiz-adv-x="1441" d="M156 141v1137q0 106 50 151.5t146 45.5h514q227 0 368.5 -117t141.5 -350q0 -207 -136 -337t-376 -130h-372v-400q0 -76 -46.5 -122t-122 -46t-121.5 46t-46 122zM492 799h313q102 0 168.5 57t66.5 152q0 209 -270 209h-278v-418z" />
<glyph unicode="Q" horiz-adv-x="1671" d="M90 756q0 334 196.5 543.5t549 209.5t549 -209.5t196.5 -543.5q0 -358 -203 -570l129 -120q27 -23 27 -58q0 -45 -36 -85t-79 -40q-49 0 -96 43l-129 121q-154 -82 -358 -82q-377 0 -561.5 217.5t-184.5 573.5zM426 756q0 -520 410 -520q78 0 135 18l-115 106 q-27 23 -27 58q0 45 36 85t79 40q49 0 96 -43l117 -107q88 131 88 363q0 219 -105.5 351t-304 132t-304 -132t-105.5 -351z" />
<glyph unicode="R" horiz-adv-x="1517" d="M156 141v1137q0 106 50 151.5t146 45.5h559q143 0 247 -36t158 -98.5t77.5 -130t23.5 -145.5q0 -125 -68.5 -226.5t-185.5 -127.5v-4q119 -16 161 -93t42 -206q0 -98 22.5 -189.5t22.5 -114.5q0 -55 -48 -93t-110 -38q-63 0 -107 28t-61.5 71t-23.5 74.5t-6 64.5 q0 201 -48.5 281.5t-183.5 80.5h-331v-432q0 -76 -46.5 -122t-122 -46t-121.5 46t-46 122zM492 819h335q254 0 254 199q0 111 -61.5 155t-181.5 44h-346v-398z" />
<glyph unicode="S" horiz-adv-x="1402" d="M90 338q0 61 40 100t101 39q49 0 85 -27.5t65 -66.5t63.5 -78t101 -66.5t161.5 -27.5q125 0 197.5 58.5t72.5 136.5q0 119 -143 153l-379 96q-111 29 -184.5 73t-110.5 100.5t-51.5 110.5t-14.5 120q0 156 90 261t217 147t281 42q207 0 389 -101t182 -243q0 -61 -45 -97 t-108 -36q-43 0 -75 22.5t-58.5 55.5t-60.5 64.5t-97.5 54t-149.5 22.5q-115 0 -178 -48t-63 -126q0 -47 39 -81.5t80 -48t110 -29.5l281 -64q385 -88 385 -424q0 -209 -156 -337t-450 -128q-293 0 -455 117t-162 256z" />
<glyph unicode="T" horiz-adv-x="1368" d="M25 1333.5q0 67.5 49 104.5t125 37h970q76 0 125 -37t49 -104.5t-49 -104.5t-125 -37h-317v-1051q0 -76 -46 -122t-122 -46t-122 46.5t-46 121.5v1051h-317q-76 0 -125 37t-49 104.5z" />
<glyph unicode="U" horiz-adv-x="1593" d="M156 553v780q0 76 46 122t121.5 46t122 -46t46.5 -122v-807q0 -291 305 -290.5t305 290.5v807q0 76 46 122t122 46t122 -46t46 -122v-780q0 -295 -169 -441.5t-472 -146.5t-472 146.5t-169 441.5z" />
<glyph unicode="V" horiz-adv-x="1327" d="M18 1352q0 78 49.5 113.5t120.5 35.5q125 0 170 -147l304 -1004h4l315 1004q45 147 158 147q72 0 121 -35.5t49 -113.5q0 -43 -21 -99l-426 -1163q-25 -68 -73 -92.5t-132 -24.5t-132 25t-72 92l-414 1163q-21 56 -21 99z" />
<glyph unicode="W" horiz-adv-x="1896" d="M18 1350q0 72 49.5 111.5t112.5 39.5q129 0 158 -137l199 -979h4l229 991q14 66 51 95.5t125 29.5q96 0 134 -39t57 -121l223 -956h4l201 979q29 137 151 137q63 0 112.5 -40t49.5 -111q0 -35 -16 -97l-289 -1120q-23 -88 -68 -124t-135 -36q-92 0 -135 39t-66 127 l-219 899h-4l-219 -899q-20 -88 -64.5 -127t-136.5 -39q-90 0 -135 36t-67 124l-289 1120q-17 62 -17 97z" />
<glyph unicode="X" horiz-adv-x="1212" d="M23 117q0 63 45 129l352 514l-322 481q-35 53 -35 102q0 66 48.5 112t119.5 46q90 0 140 -82l243 -420l260 420q29 45 56.5 63.5t81.5 18.5q68 0 115 -38t47 -113q0 -47 -31 -90l-342 -500l334 -502q55 -84 55 -119q0 -78 -49 -122t-123 -44q-94 0 -141 78l-271 453 l-291 -465q-39 -66 -131 -66q-74 0 -117.5 41.5t-43.5 102.5z" />
<glyph unicode="Y" horiz-adv-x="1253" d="M18 1348q0 78 54.5 115.5t115.5 37.5q57 0 91 -23.5t61 -74.5l293 -539l291 539q29 55 60.5 76.5t84.5 21.5q59 0 112.5 -38t53.5 -115q0 -41 -29 -88l-411 -685v-434q0 -76 -46.5 -122t-122 -46t-121.5 46.5t-46 121.5v434l-412 685q-29 47 -29 88z" />
<glyph unicode="Z" horiz-adv-x="1402" d="M61 166q0 63 56 129l760 897h-586q-76 0 -125 37t-49 104.5t49 104.5t125 37h885q156 0 155 -154q0 -68 -47 -121l-772 -917h655q76 0 125 -37t49 -104.5t-49 -104.5t-125 -37h-911q-96 0 -145.5 38t-49.5 128z" />
<glyph unicode="[" horiz-adv-x="720" d="M178 -205v1508q0 172 166 172h248q125 0 125 -111t-125 -111h-143v-1409h143q125 0 125 -110.5t-125 -110.5h-248q-166 0 -166 172z" />
<glyph unicode="\" horiz-adv-x="757" d="M16 1405q0 45 34 74.5t73 29.5q82 0 113 -84l489 -1288q16 -45 16 -67q0 -45 -33.5 -75t-72.5 -30q-82 0 -113 84l-489 1288q-17 45 -17 68z" />
<glyph unicode="]" horiz-adv-x="720" d="M4 -266.5q0 110.5 125 110.5h143v1409h-143q-125 0 -125 111t125 111h248q166 0 166 -172v-1508q0 -172 -166 -172h-248q-125 0 -125 110.5z" />
<glyph unicode="^" horiz-adv-x="1228" d="M137 678q0 39 27 90l315 573q47 88 135 88.5t136 -88.5l315 -573q27 -51 27 -90q0 -74 -105 -74q-51 0 -83 17.5t-58 64.5l-232 424l-231 -424q-27 -47 -58.5 -64.5t-82.5 -17.5q-105 0 -105 74z" />
<glyph unicode="_" horiz-adv-x="1024" d="M-59 -205q0 51 59 51h1024q59 0 59 -51t-59 -51h-1024q-59 0 -59 51z" />
<glyph unicode="`" horiz-adv-x="569" d="M0 1446q0 39 27.5 76t83.5 37q49 0 137 -70l151 -117q59 -49 59.5 -98t-31.5 -74.5t-73 -25.5t-94 36l-184 125q-76 52 -76 111z" />
<glyph unicode="a" d="M84 279q0 90 31.5 153.5t92 101t130.5 58t164 31.5l182 20q63 8 96 29.5t33 81.5q0 61 -53 92t-135 31q-76 0 -131.5 -26t-81 -56.5t-60.5 -56t-73 -25.5q-55 0 -91 33.5t-36 80.5q0 100 130 185.5t345 85.5q225 0 355 -76t130 -231v-502q0 -72 15.5 -129.5t15.5 -71.5 q0 -49 -40 -82t-95 -33q-168 0 -177 174q-158 -174 -409 -174q-135 0 -236.5 85.5t-101.5 220.5zM383 293q0 -51 45 -87t121 -36q119 0 191.5 64.5t72.5 152.5v117q-33 -31 -129 -47l-109 -17q-98 -14 -145 -47.5t-47 -99.5z" />
<glyph unicode="b" d="M119 115v1237q0 72 40 110.5t109.5 38.5t109.5 -39t40 -110v-406h4q94 152 295 152q223 0 342 -161t119 -394q0 -276 -134.5 -423t-334.5 -147q-242 0 -316 189h-4v-47q0 -141 -135 -141t-135 141zM401 532q0 -141 58.5 -233t181.5 -92q115 2 176.5 94t61.5 231 q0 57 -11.5 111.5t-36 106t-73.5 83t-117 31.5h-5q-121 0 -177 -97q-58 -100 -58 -235z" />
<glyph unicode="c" horiz-adv-x="1099" d="M61 514q0 264 146.5 424t415.5 160q182 0 309 -86t127 -195q0 -61 -40 -95t-99 -34q-47 0 -78 27.5t-47.5 60.5t-62.5 60.5t-118 27.5q-104 0 -179 -83t-75 -267q0 -141 66 -224t186 -83q70 0 116 29.5t64.5 66.5t54.5 66.5t87 29.5q55 0 90 -33.5t35 -80.5 q0 -113 -121 -212.5t-334 -99.5q-266 0 -404.5 147.5t-138.5 393.5z" />
<glyph unicode="d" d="M74 543q0 233 118.5 394t342.5 161q201 0 294 -152h5v406q0 72 39.5 110.5t109.5 38.5t110 -39t40 -110v-1237q0 -141 -135.5 -141.5t-135.5 141.5v47h-4q-74 -188 -315 -189q-201 0 -335 147t-134 423zM373 532q0 -139 61.5 -231t175.5 -94q123 0 181.5 92t58.5 233 q0 135 -57 235q-56 97 -178 97h-5q-68 0 -117 -31.5t-73.5 -83t-35.5 -106t-11 -111.5z" />
<glyph unicode="e" horiz-adv-x="1253" d="M74 516q0 264 151.5 423t413.5 159q246 0 393.5 -146.5t147.5 -343.5q0 -76 -28 -102.5t-103 -26.5h-676q0 -121 73.5 -196.5t202.5 -75.5q76 0 131.5 23.5t81 50t60 50t73.5 23.5q51 0 87 -36.5t36 -79.5q0 -84 -82 -147.5t-185 -90.5t-202 -27q-150 0 -265.5 47.5 t-180 127t-97 173t-32.5 195.5zM373 651h524q-12 104 -83 171t-169 67q-219 0 -272 -238z" />
<glyph unicode="f" horiz-adv-x="757" d="M27 972.5q0 98.5 118 98.5h68v150q0 135 96.5 211.5t233.5 76.5q86 0 141 -35.5t55 -107.5q0 -41 -28.5 -71.5t-67.5 -30.5q-12 0 -32.5 3t-32.5 3q-66 0 -66 -70v-129h92q135 0 135 -98.5t-135 -98.5h-92v-751q0 -72 -40 -111t-109.5 -39t-109.5 39t-40 111v751h-68 q-118 0 -118 98.5z" />
<glyph unicode="g" d="M74 528q0 276 134 423t335 147q109 0 191.5 -47t123.5 -131h4v36q0 141 135.5 141.5t135.5 -141.5v-868q0 -260 -144.5 -393t-388.5 -133q-176 0 -313 70.5t-137 177.5q0 55 35.5 91t87 36t95.5 -38t97 -77t125 -39q137 0 196.5 75.5t59.5 252.5v61h-4q-41 -61 -122 -102 t-167 -41q-231 0 -355 136t-124 363zM373 539q0 -117 59.5 -203t177.5 -86q106 0 171 74.5t65 226.5q0 313 -221 313q-252 1 -252 -325z" />
<glyph unicode="h" d="M119 123v1229q0 72 40 110.5t109.5 38.5t109.5 -39t40 -110v-412h4q121 158 334 158q72 0 135 -19.5t119.5 -62.5t89.5 -123t33 -188v-582q0 -150 -149.5 -150t-149.5 150v522q0 94 -47.5 150.5t-141.5 56.5q-86 0 -156.5 -65.5t-70.5 -170.5v-493q0 -150 -149.5 -150 t-149.5 150z" />
<glyph unicode="i" horiz-adv-x="569" d="M129 1353.5q0 63.5 46 109.5t109.5 46t109.5 -46t46 -109.5t-46 -109.5t-109.5 -46t-109.5 46t-46 109.5zM135 123v825q0 150 149.5 150t149.5 -150v-825q0 -150 -149.5 -150t-149.5 150z" />
<glyph unicode="j" horiz-adv-x="569" d="M-35 -295q0 104 94 105h33q43 0 43 53v1085q0 150 149.5 150t149.5 -150v-1054q0 -164 -70.5 -241t-234.5 -77t-164 129zM129 1353.5q0 63.5 46 109.5t109.5 46t109.5 -46t46 -109.5t-46 -109.5t-109.5 -46t-109.5 46t-46 109.5z" />
<glyph unicode="k" horiz-adv-x="1099" d="M119 123v1229q0 72 40 110.5t109.5 38.5t109.5 -39t40 -110v-680l332 368q53 57 114 58q53 0 97.5 -40t44.5 -95q0 -25 -7.5 -44.5t-13.5 -26.5l-24 -28l-222 -231l312 -418q31 -43 30 -96q0 -57 -41 -101.5t-100 -44.5q-88 0 -135 70l-283 399l-104 -92v-227 q0 -72 -40 -111t-109.5 -39t-109.5 39t-40 111z" />
<glyph unicode="l" horiz-adv-x="569" d="M135 123v1229q0 72 40 110.5t109.5 38.5t109.5 -39t40 -110v-1229q0 -72 -40 -111t-109.5 -39t-109.5 39t-40 111z" />
<glyph unicode="m" horiz-adv-x="1896" d="M119 123v825q0 68 38 109t103.5 41t103 -41t37.5 -109v-39h5q59 90 153 139.5t207 49.5q88 0 168 -45t119 -144q135 188 352 189q168 0 270.5 -86t102.5 -277v-612q0 -150 -149.5 -150t-149.5 150v536q0 86 -40 139.5t-124 53.5q-88 0 -152.5 -64.5t-64.5 -166.5v-498 q0 -150 -149.5 -150t-149.5 150v536q0 86 -40 139.5t-124 53.5q-88 0 -152.5 -64.5t-64.5 -166.5v-498q0 -150 -149.5 -150t-149.5 150z" />
<glyph unicode="n" d="M119 123v825q0 150 135 150t135 -150v-39h4q143 188 363 189q72 0 135 -19.5t119.5 -62.5t89.5 -123t33 -188v-582q0 -150 -149.5 -150t-149.5 150v522q0 94 -47.5 150.5t-141.5 56.5q-86 0 -156.5 -65.5t-70.5 -170.5v-493q0 -150 -149.5 -150t-149.5 150z" />
<glyph unicode="o" horiz-adv-x="1253" d="M74 537q0 246 145.5 403.5t407.5 157.5t407.5 -158t145.5 -403q0 -117 -30 -215.5t-93.5 -178.5t-173 -125t-257 -45t-257 45t-173 125t-93 178.5t-29.5 215.5zM373 537q0 -147 63.5 -244.5t190.5 -97.5t190.5 97t63.5 245q0 154 -64.5 247t-189.5 93t-189.5 -93 t-64.5 -247z" />
<glyph unicode="p" d="M119 -274v1230q0 141 135 141.5t135 -141.5v-47h4q74 188 316 189q201 0 335 -146.5t134 -423.5q0 -233 -119 -394t-342 -161q-207 0 -295 152h-4v-399q0 -72 -40 -111t-109.5 -39t-109.5 39t-40 111zM401 539q0 -135 58 -235q56 -97 177 -97h5q68 0 117 31.5t73.5 83 t36 105.5t11.5 112q0 139 -61.5 231t-176.5 94q-123 0 -181.5 -92t-58.5 -233z" />
<glyph unicode="q" d="M74 528q0 276 134 423t335 147q242 0 315 -189h4v47q0 141 135.5 141.5t135.5 -141.5v-1230q0 -72 -40 -111t-110 -39t-109.5 39t-39.5 111v399h-5q-88 -152 -294 -152q-223 0 -342 161t-119 394zM373 539q0 -57 11 -111.5t35.5 -106t74 -83t116.5 -31.5h5q121 0 178 97 q57 99 57 235q0 141 -58.5 233t-181.5 92q-115 -2 -176 -94t-61 -231z" />
<glyph unicode="r" horiz-adv-x="833" d="M135 123v835q0 66 38 103t97.5 37t97.5 -37t38 -103v-114h4q72 254 247 254q72 0 118 -41t46 -105q0 -78 -43 -113.5t-104 -35.5h-53q-94 0 -140.5 -76t-46.5 -256v-348q0 -150 -149.5 -150t-149.5 150z" />
<glyph unicode="s" horiz-adv-x="1099" d="M72 242q0 53 30.5 89t90.5 36q43 0 80.5 -29t65.5 -63.5t85 -63.5t131 -29q78 0 126 31t48 78q0 37 -25.5 59.5t-50 29.5t-96.5 26l-176 43q-150 37 -229.5 106.5t-79.5 208.5q0 168 135 251t313 83t317.5 -64.5t139.5 -163.5q0 -55 -34 -93t-91 -38q-47 0 -85 34t-91 69 t-133 35q-172 0 -172 -93q0 -33 23.5 -54t51 -30.5t84.5 -21.5l125 -29q76 -16 132.5 -37.5t116 -57.5t92 -93.5t32.5 -130.5q0 -172 -137 -264.5t-324 -92.5q-203 0 -349 79t-146 190z" />
<glyph unicode="t" horiz-adv-x="757" d="M27 972.5q0 98.5 118 98.5h52v182q0 72 39.5 111t109.5 39t110 -39t40 -111v-182h90q135 0 135 -98.5t-135 -98.5h-90v-598q0 -70 77 -69h43q49 0 77 -26.5t28 -74.5q0 -133 -217 -133q-160 0 -233.5 65.5t-73.5 201.5v634h-52q-118 0 -118 98.5z" />
<glyph unicode="u" d="M119 367v581q0 150 149.5 150t149.5 -150v-522q0 -94 47 -150.5t141 -56.5q86 0 157 65.5t71 170.5v493q0 150 149.5 150t149.5 -150v-825q0 -150 -135.5 -150t-135.5 150v39h-4q-143 -188 -362 -189q-72 0 -135.5 19.5t-120 62.5t-89 123t-32.5 189z" />
<glyph unicode="v" horiz-adv-x="1024" d="M14 942q0 76 43 116t103 40q117 0 149 -125l201 -676h4l201 676q33 125 149 125q59 0 102.5 -40t43.5 -116q0 -20 -19 -76l-282 -786q-23 -66 -57 -86.5t-140 -20.5t-140 20.5t-57 86.5l-282 786q-19 56 -19 76z" />
<glyph unicode="w" horiz-adv-x="1593" d="M27 958q0 57 44 98.5t101 41.5q76 0 102.5 -34t44.5 -112l158 -655h4l127 596q12 53 21.5 83t29 62.5t53.5 46.5q30 13 72 13h13h7q90 0 127 -47q38 -49 62 -158l129 -596h4l148 655q16 78 44 112t103 34q57 0 101.5 -41t44.5 -99q0 -45 -21 -110l-219 -713 q-31 -104 -67.5 -133t-127 -29t-126 32t-60.5 124l-147 588h-4l-148 -588q-25 -92 -60.5 -124t-125.5 -32t-127 29t-68 133l-219 713q-20 65 -20 110z" />
<glyph unicode="x" horiz-adv-x="985" d="M33 113q0 37 41 96l229 338l-215 323q-31 43 -31 78q0 55 42 102.5t118 47.5t121 -76l168 -277l162 265q53 88 137 88q53 0 94 -39t41 -90q0 -55 -31 -101l-217 -321l232 -344q29 -39 28 -90q0 -57 -41 -98.5t-110 -41.5q-76 0 -137 99l-172 274l-197 -313 q-39 -59 -117 -60q-55 0 -100 40.5t-45 99.5z" />
<glyph unicode="y" horiz-adv-x="1024" d="M25 954q0 61 42 102.5t103 41.5q123 0 154 -113l192 -698h4l182 678q37 133 144 133q78 0 115.5 -47t37.5 -88q0 -33 -22 -95l-346 -981q-57 -164 -132 -237.5t-210 -73.5q-94 0 -141.5 39t-47.5 98q0 57 38 89t100 32h30q27 0 41.5 3t33.5 25.5t30 65.5l-312 887 q-36 106 -36 139z" />
<glyph unicode="z" horiz-adv-x="1138" d="M61 117q0 68 39 108l564 613h-433q-49 0 -84.5 28.5t-35.5 88t35.5 88t84.5 28.5h711q59 0 91 -36t32 -95q0 -49 -47 -100l-553 -607h491q49 0 85 -28.5t36 -88t-35.5 -88t-85.5 -28.5h-761q-63 0 -98.5 35t-35.5 82z" />
<glyph unicode="{" horiz-adv-x="720" d="M4 549q0 41 25.5 69.5t72.5 28.5q31 0 51.5 7.5t37 39t16.5 90.5v418q0 139 65.5 206t200.5 67h152q41 0 66.5 -25t25.5 -68q0 -92 -92 -92h-52q-96 0 -96 -123v-409q0 -66 -21.5 -110t-61.5 -62.5t-66.5 -24.5t-65.5 -10v-4q39 -4 65.5 -10.5t66.5 -24.5t61.5 -62 t21.5 -110v-410q0 -123 96 -123h52q92 0 92 -92q0 -43 -25.5 -67.5t-66.5 -24.5h-152q-135 0 -200.5 66.5t-65.5 206.5v417q0 84 -27.5 111t-77.5 27q-47 0 -72.5 28.5t-25.5 69.5z" />
<glyph unicode="|" horiz-adv-x="454" d="M104 98v1278q0 57 32 95t91.5 38t91 -37.5t31.5 -95.5v-1278q0 -57 -31.5 -95t-91 -38t-91.5 38t-32 95z" />
<glyph unicode="}" horiz-adv-x="720" d="M4 -285q0 92 92 92h51q96 0 97 123v410q0 66 21.5 110t61.5 62t66.5 24.5t65.5 10.5v4q-39 4 -65.5 10t-66.5 24.5t-61.5 62.5t-21.5 110v409q0 123 -97 123h-51q-92 0 -92 92q0 43 25.5 68t66.5 25h152q135 0 200.5 -67t65.5 -206v-418q0 -84 27.5 -110.5t76.5 -26.5 q47 0 73 -28.5t26 -69.5t-25.5 -69.5t-73.5 -28.5q-31 0 -51 -7.5t-36.5 -39t-16.5 -91.5v-417q0 -139 -65.5 -206t-200.5 -67h-152q-41 0 -66.5 24.5t-25.5 67.5z" />
<glyph unicode="~" horiz-adv-x="1228" d="M84 502q0 100 82 185t207 85q96 0 254.5 -69.5t201.5 -69.5q59 0 124 61.5t104 61.5q45 0 66.5 -29t21.5 -70q0 -100 -84 -185t-217 -85q-88 0 -244 69.5t-201 69.5q-59 0 -123.5 -61.5t-103.5 -61.5q-45 0 -66.5 29t-21.5 70z" />
<glyph unicode="&#xa1;" horiz-adv-x="647" d="M156 923.5q0 69.5 49 119t118.5 49.5t119 -49.5t49.5 -119t-49.5 -118.5t-119 -49t-118.5 49t-49 118.5zM162 -29q0 31 8 97l63 479q6 43 28 59.5t63 16.5t62.5 -16.5t27.5 -59.5l63 -479q8 -66 8 -97v-237q0 -158 -161.5 -158t-161.5 158v237z" />
<glyph unicode="&#xa2;" horiz-adv-x="1253" d="M137 514q0 244 125 399.5t356 178.5v135q0 27 18.5 48t43.5 21t43 -21.5t18 -47.5v-131q168 -12 281 -95t113 -184q0 -61 -40 -95t-100 -34q-43 0 -71.5 22.5t-44 52.5t-51 58.5t-87.5 36.5v-645q49 10 85 42t52.5 63.5t50.5 56t81 24.5q55 0 90 -33.5t35 -80.5 q0 -102 -104.5 -196.5t-289.5 -111.5v-143q0 -27 -18 -48.5t-43 -21.5t-43.5 21.5t-18.5 48.5v143q-238 16 -359.5 162t-121.5 375zM436 514q0 -119 47 -197.5t135 -99.5v635q-80 -23 -131 -104.5t-51 -233.5z" />
<glyph unicode="&#xa3;" horiz-adv-x="1253" d="M78 706.5q0 98.5 96 98.5h43q-61 88 -61 219q0 188 147.5 310t366.5 122q250 0 391 -108.5t141 -243.5q0 -68 -42 -105.5t-111 -37.5q-49 0 -78 25.5t-44.5 62t-34 73.5t-66.5 62.5t-124 25.5q-96 0 -165.5 -55t-69.5 -149q0 -74 68 -201h223q127 0 127 -98.5t-127 -98.5 h-162q10 -27 10 -49q0 -164 -209 -321l4 -5q10 4 50.5 20.5t56.5 23t51 13.5t70 7q70 0 166 -20.5t145 -20.5q18 0 76.5 11.5t75.5 11.5q55 0 86.5 -37t31.5 -95q0 -88 -69.5 -131t-165.5 -43q-66 0 -221.5 39t-249.5 39q-98 0 -164 -39q-8 -4 -24.5 -13t-25.5 -13 t-23.5 -8.5t-28.5 -4.5q-61 0 -96.5 40t-35.5 102q0 37 22 71.5t53.5 65.5t63 65.5t53 84t21.5 104.5q0 47 -22 102h-109q-110 0 -110 98.5z" />
<glyph unicode="&#xa4;" horiz-adv-x="1253" d="M104 301q0 41 33 72l56 53q-88 131 -89 289q0 156 86 289l-55 51q-31 33 -31 73.5t33 74.5t74 34q51 0 86 -35l47 -49q133 84 283 84q154 0 282 -84l47 49q35 35 86 35q43 0 75 -33t32 -76q0 -41 -31 -71l-55 -53q86 -133 86 -289t-86 -289l55 -53q31 -31 31 -72 q0 -43 -32 -75.5t-75 -32.5q-51 0 -86 34l-49 49q-129 -84 -280.5 -83.5t-280.5 83.5l-49 -49q-35 -35 -86 -34q-41 0 -74 33.5t-33 74.5zM350 715q0 -121 81 -205t195.5 -84t195.5 84t81 205t-81 205t-195.5 84t-195.5 -84t-81 -205z" />
<glyph unicode="&#xa5;" horiz-adv-x="1253" d="M37 1307q0 76 55 112.5t121 36.5q90 0 139 -96l275 -522l274 522q49 96 139 96q66 0 121.5 -37t55.5 -112q0 -35 -29 -84l-270 -445h124q35 0 57.5 -22.5t22.5 -57t-22.5 -57.5t-57.5 -23h-219l-35 -59v-59h254q35 0 57.5 -22.5t22.5 -57.5t-22.5 -57.5t-57.5 -22.5h-254 v-203q0 -74 -43 -119t-118.5 -45t-118.5 45t-43 119v203h-254q-35 0 -57.5 22.5t-22.5 57.5t22.5 57.5t57.5 22.5h254v59l-35 59h-219q-35 0 -57.5 23t-22.5 57.5t22.5 57t57.5 22.5h125l-270 445q-29 49 -29 84z" />
<glyph unicode="&#xa6;" horiz-adv-x="454" d="M104 92v387q0 55 32 91t91.5 36t91 -35.5t31.5 -91.5v-387q0 -55 -31.5 -91t-91 -36t-91.5 36t-32 91zM104 995v387q0 55 32 91t91.5 36t91 -35.5t31.5 -91.5v-387q0 -55 -31.5 -91t-91 -36t-91.5 36t-32 91z" />
<glyph unicode="&#xa7;" d="M115 596q0 115 55 187.5t164 131.5q-57 37 -91 96.5t-34 123.5q0 180 123 277t305 97t296 -96t114 -201q0 -49 -33 -84.5t-82 -35.5q-47 0 -78 34.5t-45 75.5t-59 76t-119 35q-78 0 -121 -41t-43 -92q0 -18 6 -37t12.5 -32t22.5 -27.5t24.5 -22.5t31 -21.5t29.5 -16.5 t33.5 -15.5t28.5 -14.5l174 -90q160 -80 234 -164t74 -209q0 -111 -55.5 -191.5t-151.5 -123.5q125 -72 125 -235q0 -168 -123 -263.5t-295 -95.5q-217 0 -330.5 98.5t-113.5 200.5q0 49 31.5 83t84.5 34q45 0 78 -34t52.5 -76t67.5 -75.5t120 -33.5q66 0 118 32.5t52 100.5 q0 16 -4.5 30.5t-13.5 29t-18 25.5t-27.5 23.5t-32 21.5t-40 23.5t-43.5 22.5l-49 25l-53 26q-199 98 -260 148q-141 108 -141 270zM348 643q0 -37 22.5 -77t57.5 -58l348 -189q49 12 88 57.5t39 110.5q0 53 -28.5 90t-100.5 74l-301 160q-41 -27 -59.5 -42t-42 -50 t-23.5 -76z" />
<glyph unicode="&#xa8;" horiz-adv-x="569" d="M-74 1355.5q0 61.5 44 105.5t105.5 44t105.5 -44t44 -105.5t-44 -105.5t-105.5 -44t-105.5 44t-44 105.5zM344 1355.5q0 61.5 44 105.5t105.5 44t105.5 -44t44 -105.5t-44 -105.5t-105.5 -44t-105.5 44t-44 105.5z" />
<glyph unicode="&#xa9;" horiz-adv-x="1638" d="M47 737.5q0 235.5 110.5 414.5t283.5 268t378 89q203 0 377 -89t284.5 -268t110.5 -414.5t-110.5 -415t-284.5 -268.5t-377 -89q-205 0 -378 89t-283.5 268.5t-110.5 415zM281 737q0 -258 154.5 -422.5t383.5 -164.5q227 0 383 165.5t156 421.5t-155.5 422t-383.5 166 q-229 0 -383.5 -165t-154.5 -423zM438 743q0 195 110.5 321t297.5 126q152 0 247 -80t95 -170q0 -51 -29 -76.5t-57 -25.5q-45 0 -69.5 26.5t-35 57t-48.5 57.5t-103 27q-84 0 -135.5 -70t-51.5 -188q0 -117 52.5 -191t138.5 -74q59 0 97 28t51.5 59.5t41 59t70.5 27.5 q39 0 62.5 -24.5t23.5 -65.5q0 -76 -98.5 -172t-247.5 -96q-182 0 -297 127t-115 317z" />
<glyph unicode="&#xaa;" horiz-adv-x="813" d="M53 965q0 102 71 145t202 59l118 15q25 4 39.5 8t24.5 18.5t10 38.5q0 72 -112 72q-59 0 -98.5 -23.5t-67 -48t-60.5 -24.5q-39 0 -62.5 19.5t-23.5 47.5q0 59 85 111.5t229 52.5q147 0 233 -46t86 -138v-301q0 -43 10.5 -78t10.5 -43q0 -31 -28 -50.5t-65 -19.5 q-111 0 -114 105q-102 -104 -267 -105q-88 0 -154.5 51.5t-66.5 133.5zM262 981q0 -66 94 -66q76 0 119 35t43 86v64q-20 -18 -74 -29l-69 -10q-113 -19 -113 -80z" />
<glyph unicode="&#xab;" horiz-adv-x="1214" d="M145 565.5q0 100.5 70 149.5l201 145q47 33 80 33q41 0 68.5 -32t27.5 -75q0 -63 -66 -106l-168 -115l168 -114q66 -43 66 -107q0 -43 -27.5 -74.5t-68.5 -31.5q-33 0 -80 32l-201 146q-70 49 -70 149.5zM623 565.5q0 100.5 69 149.5l201 145q47 33 80 33q41 0 68.5 -32 t27.5 -75q0 -63 -65 -106l-168 -115l168 -114q66 -43 65 -107q0 -43 -27.5 -74.5t-68.5 -31.5q-33 0 -80 32l-201 146q-69 49 -69 149.5z" />
<glyph unicode="&#xac;" horiz-adv-x="1228" d="M35 821q0 55 40 89t103 34h852q90 0 127 -35t37 -116v-416q0 -63 -34 -103.5t-89 -40.5t-89 40t-34 104v321h-770q-61 0 -102 37t-41 86z" />
<glyph unicode="&#xad;" horiz-adv-x="833" d="M82 565.5q0 141.5 166 141.5h338q166 0 166 -141.5t-166 -141.5h-338q-166 0 -166 141.5z" />
<glyph unicode="&#xae;" horiz-adv-x="1638" d="M47 737.5q0 235.5 110.5 414.5t284.5 268t377 89t377 -89t284.5 -268t110.5 -414.5t-110.5 -415t-284.5 -268.5t-377 -89t-377 89t-284.5 268.5t-110.5 415zM281 737q0 -258 154.5 -422.5t383.5 -164.5q227 0 383 165.5t156 421.5t-155.5 422t-383.5 166 q-229 0 -383.5 -165t-154.5 -423zM514 430v629q0 43 26.5 67.5t65.5 24.5h260q147 0 222 -55.5t75 -192.5q0 -106 -56 -167.5t-134 -65.5l135 -181q27 -37 27 -81q0 -27 -26 -49.5t-62 -22.5q-61 0 -107 65l-188 269h-54v-240q0 -45 -25.5 -69.5t-66.5 -24.5 q-39 0 -65.5 24.5t-26.5 69.5zM698 817h158q111 0 111 94q0 92 -111 93h-158v-187z" />
<glyph unicode="&#xaf;" horiz-adv-x="569" d="M-90 1356q0 43 27.5 67.5t74.5 24.5h545q47 0 74.5 -24.5t27.5 -67.5t-27.5 -67.5t-74.5 -24.5h-545q-47 0 -74.5 24.5t-27.5 67.5z" />
<glyph unicode="&#xb0;" horiz-adv-x="819" d="M117 1163q0 123 85 208t207.5 85t207.5 -85t85 -208t-85 -208t-207.5 -85t-207.5 85t-85 208zM264 1163.5q0 -57.5 44 -101.5t101.5 -44t101.5 44t44 101.5t-44 101.5t-101.5 44t-101.5 -44t-44 -101.5z" />
<glyph unicode="&#xb1;" horiz-adv-x="1228" d="M35 123q0 55 40 89t103 34h873q63 0 103 -34t40 -89q0 -49 -41 -86t-102 -37h-873q-61 0 -102 37t-41 86zM35 745q0 55 40 89t103 34h314v148q0 63 33.5 103t89 40t89 -40t33.5 -103v-148h314q63 0 103 -33.5t40 -89.5q0 -49 -41 -85.5t-102 -36.5h-314v-148 q0 -63 -33.5 -103t-89 -40t-89 40t-33.5 103v148h-314q-61 0 -102 36.5t-41 85.5z" />
<glyph unicode="&#xb2;" horiz-adv-x="788" d="M41 684q0 133 238 270q20 12 51.5 29.5t45 26t37 23t33 21.5t24.5 18t20.5 19.5t13.5 19.5t11 21.5t5 23.5t2 28q0 45 -39 72.5t-94 27.5q-121 0 -160 -106q-14 -39 -30.5 -54.5t-53.5 -15.5q-98 0 -98 84q0 111 104.5 187.5t251.5 76.5q156 0 248 -68.5t92 -175.5 q0 -115 -47 -178t-159 -123q-213 -111 -238 -135q-6 -6 -10 -12h360q98 0 98.5 -92t-98.5 -92h-499q-53 0 -81 29.5t-28 74.5z" />
<glyph unicode="&#xb3;" horiz-adv-x="788" d="M31 778q0 39 27.5 62.5t72.5 23.5q39 0 61.5 -19.5t31.5 -44t44 -44t94 -19.5q72 0 110 31t38 78q0 92 -115 104q-111 12 -110 72q0 51 26.5 67.5t89.5 20.5q88 6 88 90q0 39 -34.5 61.5t-86 22.5t-84 -18.5t-45 -40t-36 -40t-58.5 -18.5q-94 0 -94 74q0 102 104.5 158.5 t223.5 56.5q168 0 250 -69.5t82 -169.5q0 -117 -127 -170v-5q147 -33 147 -188q0 -139 -103.5 -214t-262.5 -75q-170 0 -252 70.5t-82 142.5z" />
<glyph unicode="&#xb4;" horiz-adv-x="569" d="M111 1274q0 49 59 98l152 117q88 70 137 70q55 0 82.5 -37t27.5 -76q0 -59 -75 -111l-185 -125q-53 -37 -94 -36.5t-72.5 26t-31.5 74.5z" />
<glyph unicode="&#xb5;" d="M119 -274v1222q0 150 149.5 150t149.5 -150v-522q0 -94 47 -150.5t141 -56.5q86 0 157 65.5t71 170.5v493q0 150 149.5 150t149.5 -150v-825q0 -150 -135.5 -150t-135.5 150v39h-4q-63 -84 -150 -136.5t-171 -52.5q-88 0 -119 27v-274q0 -72 -40 -111t-109.5 -39 t-109.5 39t-40 111z" />
<glyph unicode="&#xb6;" horiz-adv-x="1269" d="M20 1110q0 205 132.5 285t371.5 80h520q57 0 90 -34t33 -89v-1581q0 -55 -32.5 -89t-90 -34t-90 33.5t-32.5 89.5v1519h-199v-1519q0 -55 -33 -89t-90 -34t-90 33.5t-33 89.5v989q-221 0 -339 92t-118 258z" />
<glyph unicode="&#xb7;" horiz-adv-x="626" d="M133 594q0 76 52.5 128t128 52t128 -52t52.5 -128t-52.5 -128t-128 -52t-128 52t-52.5 128z" />
<glyph unicode="&#xb8;" horiz-adv-x="569" d="M63 -354q0 20 14.5 36.5t35.5 16.5q8 0 49 -11.5t63 -11.5q33 0 52.5 18.5t19.5 47.5q0 53 -51 53q-16 0 -38 -3t-28 -3q-47 0 -47 41q0 12 23 49l80 121h114l-76 -113h15q193 0 192 -143q0 -82 -72.5 -132t-175.5 -50q-84 0 -127 25.5t-43 58.5z" />
<glyph unicode="&#xb9;" horiz-adv-x="542" d="M-25 1194q0 41 19.5 55.5t77.5 24.5l49 8q47 8 77.5 38t41 59.5t36 53t64.5 23.5q90 0 90 -84v-690q0 -109 -110.5 -109t-110.5 109v436h-162q-72 0 -72 76z" />
<glyph unicode="&#xba;" horiz-adv-x="815" d="M47 1118.5q0 147.5 95.5 242.5t265.5 95t265 -95t95 -242.5t-87 -243t-273.5 -95.5t-273.5 95.5t-87 243zM256 1118q0 -88 38 -145.5t113.5 -57.5t113.5 57.5t38 145.5q0 92 -38 147.5t-113.5 55.5t-113.5 -55.5t-38 -147.5z" />
<glyph unicode="&#xbb;" horiz-adv-x="1214" d="M145 344q0 63 66 107l168 114l-168 115q-66 43 -66 106q0 43 28 75t69 32q33 0 80 -33l200 -145q70 -49 70 -149.5t-70 -149.5l-200 -146q-47 -33 -80 -32q-41 0 -69 31.5t-28 74.5zM623 344q0 63 65 107l168 114l-168 115q-66 43 -65 106q0 43 27.5 75t68.5 32 q33 0 80 -33l200 -145q70 -49 70 -149.5t-70 -149.5l-200 -146q-47 -33 -80 -32q-41 0 -68.5 31.5t-27.5 74.5z" />
<glyph unicode="&#xbc;" horiz-adv-x="1875" d="M-25 1194q0 41 19.5 55.5t77.5 24.5l49 8q47 8 77.5 38t41 59.5t36 53t64.5 23.5q90 0 90 -84v-690q0 -109 -110.5 -109t-110.5 109v436h-162q-72 0 -72 76zM354 -10q0 29 23 69l737 1393q31 57 80 57q33 0 56.5 -21.5t23.5 -47.5q0 -29 -23 -70l-737 -1393 q-31 -57 -80 -57q-33 0 -56.5 21.5t-23.5 48.5zM1047 274q0 49 20 74l385 469q47 57 123 57q49 0 81 -25.5t32 -68.5v-434h49q33 0 53 -22.5t20 -57.5t-20.5 -57.5t-52.5 -22.5h-49v-108q0 -86 -104.5 -86t-104.5 86v108h-330q-49 0 -75.5 27.5t-26.5 60.5zM1241 346h238 v297h-4z" />
<glyph unicode="&#xbd;" horiz-adv-x="1875" d="M-25 1194q0 41 19.5 55.5t77.5 24.5l49 8q47 8 77.5 38t41 59.5t36 53t64.5 23.5q90 0 90 -84v-690q0 -109 -110.5 -109t-110.5 109v436h-162q-72 0 -72 76zM354 -10q0 29 23 69l737 1393q31 57 80 57q33 0 56.5 -21.5t23.5 -47.5q0 -29 -23 -70l-737 -1393 q-31 -57 -80 -57q-33 0 -56.5 21.5t-23.5 48.5zM1104 104q0 133 237 271q20 12 52 29.5t45.5 25.5t37 22.5t33 21.5t24.5 18.5t20.5 19.5t13.5 19.5t11 21.5t5 23.5t2 27.5q0 45 -39 73t-94 28q-121 0 -160 -107q-14 -39 -30.5 -54.5t-53.5 -15.5q-98 0 -98 84 q0 111 104.5 188t251.5 77q156 0 248 -69t92 -175q0 -115 -47 -178.5t-160 -122.5q-213 -111 -237 -135q-6 -6 -10 -13h360q98 0 98 -92t-98 -92h-500q-53 0 -80.5 29.5t-27.5 74.5z" />
<glyph unicode="&#xbe;" horiz-adv-x="1875" d="M31 778q0 39 27.5 62.5t72.5 23.5q39 0 61.5 -19.5t31.5 -44t44 -44t94 -19.5q72 0 110 31t38 78q0 92 -115 104q-111 12 -110 72q0 51 26.5 67.5t89.5 20.5q88 6 88 90q0 39 -34.5 61.5t-86 22.5t-84 -18.5t-45 -40t-36 -40t-58.5 -18.5q-94 0 -94 74q0 102 104.5 158.5 t223.5 56.5q168 0 250 -69.5t82 -169.5q0 -117 -127 -170v-5q147 -33 147 -188q0 -139 -103.5 -214t-262.5 -75q-170 0 -252 70.5t-82 142.5zM500 -10q0 29 22 69l738 1393q31 57 79 57q33 0 56.5 -21.5t23.5 -47.5q0 -29 -22 -70l-738 -1393q-31 -57 -79 -57 q-33 0 -56.5 21.5t-23.5 48.5zM1047 274q0 49 20 74l385 469q47 57 123 57q49 0 81 -25.5t32 -68.5v-434h49q33 0 53 -22.5t20 -57.5t-20.5 -57.5t-52.5 -22.5h-49v-108q0 -86 -104.5 -86t-104.5 86v108h-330q-49 0 -75.5 27.5t-26.5 60.5zM1241 346h238v297h-4z" />
<glyph unicode="&#xbf;" horiz-adv-x="1175" d="M88 -14q0 92 50 172t110.5 125t126 93t84.5 75q12 18 31.5 71t47 77t89 24t96.5 -42t35 -96q0 -82 -56.5 -152.5t-123 -113.5t-123 -105.5t-56.5 -127.5q0 -82 52.5 -129t144.5 -47q72 0 118 27.5t65.5 67.5t37 80t50 67.5t87.5 27.5q57 0 95 -33t38 -92 q0 -150 -145 -264.5t-334 -114.5q-217 0 -368.5 103.5t-151.5 306.5zM451 923.5q0 69.5 49 119t118.5 49.5t118.5 -49.5t49 -119t-49 -118.5t-118.5 -49t-118.5 49t-49 118.5z" />
<glyph unicode="&#xc0;" horiz-adv-x="1366" d="M18 121q0 41 33 129l434 1149q39 102 164 102h80q137 0 180 -123l406 -1128q33 -88 33 -129q0 -61 -46.5 -104.5t-111.5 -43.5q-117 0 -152 93l-86 245h-540l-88 -245q-31 -92 -150 -93q-70 0 -113 40t-43 108zM485 545h394l-191 592h-4zM399 1819q0 39 27.5 76t83.5 37 q49 0 137 -70l151 -117q59 -49 59.5 -98t-31.5 -74.5t-73 -25.5t-94 36l-184 125q-76 52 -76 111z" />
<glyph unicode="&#xc1;" horiz-adv-x="1366" d="M18 121q0 41 33 129l434 1149q39 102 164 102h80q137 0 180 -123l406 -1128q33 -88 33 -129q0 -61 -46.5 -104.5t-111.5 -43.5q-117 0 -152 93l-86 245h-540l-88 -245q-31 -92 -150 -93q-70 0 -113 40t-43 108zM485 545h394l-191 592h-4zM510 1647q0 49 59 98l152 117 q88 70 137 70q55 0 82.5 -37t27.5 -76q0 -59 -75 -111l-185 -125q-53 -37 -94 -36.5t-72.5 26t-31.5 74.5z" />
<glyph unicode="&#xc2;" horiz-adv-x="1366" d="M18 121q0 41 33 129l434 1149q39 102 164 102h80q137 0 180 -123l406 -1128q33 -88 33 -129q0 -61 -46.5 -104.5t-111.5 -43.5q-117 0 -152 93l-86 245h-540l-88 -245q-31 -92 -150 -93q-70 0 -113 40t-43 108zM485 545h394l-191 592h-4zM352 1653q0 39 151 180 q55 51 91 66.5t89.5 15.5t89.5 -15.5t91 -66.5q152 -141 151 -180q0 -45 -29.5 -75.5t-62.5 -30.5q-51 0 -108 59l-131 131l-131 -131q-57 -59 -109 -59q-33 0 -62.5 30.5t-29.5 75.5z" />
<glyph unicode="&#xc3;" horiz-adv-x="1366" d="M18 121q0 41 33 129l434 1149q39 102 164 102h80q137 0 180 -123l406 -1128q33 -88 33 -129q0 -61 -46.5 -104.5t-111.5 -43.5q-117 0 -152 93l-86 245h-540l-88 -245q-31 -92 -150 -93q-70 0 -113 40t-43 108zM485 545h394l-191 592h-4zM319 1702q0 70 61.5 122 t131.5 52q51 0 147 -35q90 -37 125 -36q27 0 76 36q47 35 86 35q102 0 102 -92q0 -70 -72.5 -130t-144.5 -60q-55 0 -145 36.5t-107 36.5q-35 0 -84 -36.5t-78 -36.5q-39 0 -68.5 26.5t-29.5 81.5z" />
<glyph unicode="&#xc4;" horiz-adv-x="1366" d="M18 121q0 41 33 129l434 1149q39 102 164 102h80q137 0 180 -123l406 -1128q33 -88 33 -129q0 -61 -46.5 -104.5t-111.5 -43.5q-117 0 -152 93l-86 245h-540l-88 -245q-31 -92 -150 -93q-70 0 -113 40t-43 108zM485 545h394l-191 592h-4zM325 1728.5q0 61.5 44 105.5 t105.5 44t105.5 -44t44 -105.5t-44 -105.5t-105.5 -44t-105.5 44t-44 105.5zM743 1728.5q0 61.5 44 105.5t105.5 44t105.5 -44t44 -105.5t-44 -105.5t-105.5 -44t-105.5 44t-44 105.5z" />
<glyph unicode="&#xc5;" horiz-adv-x="1366" d="M18 121q0 41 33 129l434 1149q39 102 164 102h80q137 0 180 -123l406 -1128q33 -88 33 -129q0 -61 -46.5 -104.5t-111.5 -43.5q-117 0 -152 93l-86 245h-540l-88 -245q-31 -92 -150 -93q-70 0 -113 40t-43 108zM485 545h394l-191 592h-4zM462 1751q0 92 65 156.5 t157 64.5t156.5 -64.5t64.5 -156.5t-64.5 -156.5t-156.5 -64.5t-157 64.5t-65 156.5zM577 1751q0 -45 31 -75.5t76 -30.5t75.5 30.5t30.5 75.5t-30.5 76t-75.5 31t-76 -31t-31 -76z" />
<glyph unicode="&#xc6;" horiz-adv-x="1972" d="M4 109q0 53 25 118l397 1123q25 70 60.5 97.5t101.5 27.5h1130q170 0 170 -135.5t-170 -135.5h-530v-319h483q158 0 158 -129t-158 -129h-483v-357h547q170 0 170 -135t-170 -135h-686q-96 0 -146.5 45t-50.5 152v131h-457l-84 -248q-35 -106 -155 -107 q-59 0 -105.5 36.5t-46.5 99.5zM471 561h381v656h-158z" />
<glyph unicode="&#xc7;" horiz-adv-x="1478" d="M109 737q0 213 78.5 385t245.5 279.5t396 107.5q264 0 430 -129t166 -256q0 -72 -38.5 -111.5t-112.5 -39.5q-53 0 -90 27.5t-62.5 66.5t-57.5 78t-90.5 66.5t-144.5 27.5q-164 0 -274.5 -135t-110.5 -367q0 -221 96.5 -361t301.5 -140q74 0 129 28.5t88 70.5t60.5 84 t63.5 70.5t79 28.5q66 0 114.5 -34.5t48.5 -94.5q0 -162 -170 -292t-407 -132l-53 -78h14q193 0 192 -143q0 -82 -72.5 -132t-174.5 -50q-84 0 -127 25.5t-43 58.5q0 20 14 36.5t35 16.5q8 0 49 -11.5t63 -11.5q33 0 52.5 18.5t19.5 47.5q0 53 -51 53q-16 0 -37.5 -3 t-28.5 -3q-47 0 -47 41q0 12 23 49l61 92q-301 29 -464.5 223.5t-163.5 542.5z" />
<glyph unicode="&#xc8;" horiz-adv-x="1402" d="M164 197v1081q0 106 50 151.5t146 45.5h789q170 0 170 -135.5t-170 -135.5h-649v-319h569q158 0 158 -129t-158 -129h-569v-357h665q170 0 170 -135t-170 -135h-805q-96 0 -146 45.5t-50 151.5zM459 1819q0 39 27.5 76t83.5 37q49 0 137 -70l151 -117q59 -49 59.5 -98 t-31.5 -74.5t-73 -25.5t-94 36l-184 125q-76 52 -76 111z" />
<glyph unicode="&#xc9;" horiz-adv-x="1402" d="M164 197v1081q0 106 50 151.5t146 45.5h789q170 0 170 -135.5t-170 -135.5h-649v-319h569q158 0 158 -129t-158 -129h-569v-357h665q170 0 170 -135t-170 -135h-805q-96 0 -146 45.5t-50 151.5zM570 1647q0 49 59 98l152 117q88 70 137 70q55 0 82.5 -37t27.5 -76 q0 -59 -75 -111l-185 -125q-53 -37 -94 -36.5t-72.5 26t-31.5 74.5z" />
<glyph unicode="&#xca;" horiz-adv-x="1402" d="M164 197v1081q0 106 50 151.5t146 45.5h789q170 0 170 -135.5t-170 -135.5h-649v-319h569q158 0 158 -129t-158 -129h-569v-357h665q170 0 170 -135t-170 -135h-805q-96 0 -146 45.5t-50 151.5zM412 1653q0 39 151 180q55 51 91 66.5t89.5 15.5t89.5 -15.5t91 -66.5 q152 -141 151 -180q0 -45 -29.5 -75.5t-62.5 -30.5q-51 0 -108 59l-131 131l-131 -131q-57 -59 -109 -59q-33 0 -62.5 30.5t-29.5 75.5z" />
<glyph unicode="&#xcb;" horiz-adv-x="1402" d="M164 197v1081q0 106 50 151.5t146 45.5h789q170 0 170 -135.5t-170 -135.5h-649v-319h569q158 0 158 -129t-158 -129h-569v-357h665q170 0 170 -135t-170 -135h-805q-96 0 -146 45.5t-50 151.5zM385 1728.5q0 61.5 44 105.5t105.5 44t105.5 -44t44 -105.5t-44 -105.5 t-105.5 -44t-105.5 44t-44 105.5zM803 1728.5q0 61.5 44 105.5t105.5 44t105.5 -44t44 -105.5t-44 -105.5t-105.5 -44t-105.5 44t-44 105.5z" />
<glyph unicode="&#xcc;" horiz-adv-x="647" d="M156 141v1192q0 76 46 122t121.5 46t122 -46t46.5 -122v-1192q0 -76 -46.5 -122t-122 -46t-121.5 46t-46 122zM39 1819q0 39 27.5 76t83.5 37q49 0 137 -70l151 -117q59 -49 59.5 -98t-31.5 -74.5t-73 -25.5t-94 36l-184 125q-76 52 -76 111z" />
<glyph unicode="&#xcd;" horiz-adv-x="647" d="M156 141v1192q0 76 46 122t121.5 46t122 -46t46.5 -122v-1192q0 -76 -46.5 -122t-122 -46t-121.5 46t-46 122zM150 1647q0 49 59 98l152 117q88 70 137 70q55 0 82.5 -37t27.5 -76q0 -59 -75 -111l-185 -125q-53 -37 -94 -36.5t-72.5 26t-31.5 74.5z" />
<glyph unicode="&#xce;" horiz-adv-x="647" d="M156 141v1192q0 76 46 122t121.5 46t122 -46t46.5 -122v-1192q0 -76 -46.5 -122t-122 -46t-121.5 46t-46 122zM-8 1653q0 39 151 180q55 51 91 66.5t89.5 15.5t89.5 -15.5t91 -66.5q152 -141 151 -180q0 -45 -29.5 -75.5t-62.5 -30.5q-51 0 -108 59l-131 131l-131 -131 q-57 -59 -109 -59q-33 0 -62.5 30.5t-29.5 75.5z" />
<glyph unicode="&#xcf;" horiz-adv-x="647" d="M156 141v1192q0 76 46 122t121.5 46t122 -46t46.5 -122v-1192q0 -76 -46.5 -122t-122 -46t-121.5 46t-46 122zM-35 1728.5q0 61.5 44 105.5t105.5 44t105.5 -44t44 -105.5t-44 -105.5t-105.5 -44t-105.5 44t-44 105.5zM383 1728.5q0 61.5 44 105.5t105.5 44t105.5 -44 t44 -105.5t-44 -105.5t-105.5 -44t-105.5 44t-44 105.5z" />
<glyph unicode="&#xd0;" horiz-adv-x="1554" d="M-12 751.5q0 92.5 96 92.5h72v434q0 106 50 151.5t146 45.5h410q117 0 215 -20.5t190.5 -73t155.5 -134.5t102 -212t39 -298q0 -350 -186 -543.5t-522 -193.5h-404q-96 0 -146 45t-50 152v462h-72q-96 0 -96 92.5zM492 270h282q127 0 210 72t113.5 172t30.5 223 q0 223 -88 345t-268 122h-280v-360h268q96 0 96 -92.5t-96 -92.5h-268v-389z" />
<glyph unicode="&#xd1;" horiz-adv-x="1593" d="M150 135v1170q0 102 51 149t159 47q115 0 168 -88l588 -948h4v874q0 162 162 162t162 -162v-1157q0 -209 -199 -209q-78 0 -114.5 18.5t-69.5 71.5l-584 922h-4v-850q0 -162 -161.5 -162t-161.5 162zM432 1702q0 70 61.5 122t131.5 52q51 0 147 -35q90 -37 125 -36 q27 0 76 36q47 35 86 35q102 0 102 -92q0 -70 -72.5 -130t-144.5 -60q-55 0 -145 36.5t-107 36.5q-35 0 -84 -36.5t-78 -36.5q-39 0 -68.5 26.5t-29.5 81.5z" />
<glyph unicode="&#xd2;" horiz-adv-x="1671" d="M90 756q0 334 196.5 543.5t549 209.5t549 -209.5t196.5 -543.5q0 -160 -47 -300.5t-136 -251t-234.5 -175t-327.5 -64.5q-377 0 -561.5 217.5t-184.5 573.5zM426 756q0 -520 410 -520q215 0 312 143t97 377q0 219 -105.5 351t-304 132t-304 -132t-105.5 -351zM551 1819 q0 39 27.5 76t83.5 37q49 0 137 -70l151 -117q59 -49 59.5 -98t-31.5 -74.5t-73 -25.5t-94 36l-184 125q-76 52 -76 111z" />
<glyph unicode="&#xd3;" horiz-adv-x="1671" d="M90 756q0 334 196.5 543.5t549 209.5t549 -209.5t196.5 -543.5q0 -160 -47 -300.5t-136 -251t-234.5 -175t-327.5 -64.5q-377 0 -561.5 217.5t-184.5 573.5zM426 756q0 -520 410 -520q215 0 312 143t97 377q0 219 -105.5 351t-304 132t-304 -132t-105.5 -351zM662 1647 q0 49 59 98l152 117q88 70 137 70q55 0 82.5 -37t27.5 -76q0 -59 -75 -111l-185 -125q-53 -37 -94 -36.5t-72.5 26t-31.5 74.5z" />
<glyph unicode="&#xd4;" horiz-adv-x="1671" d="M90 756q0 334 196.5 543.5t549 209.5t549 -209.5t196.5 -543.5q0 -160 -47 -300.5t-136 -251t-234.5 -175t-327.5 -64.5q-377 0 -561.5 217.5t-184.5 573.5zM426 756q0 -520 410 -520q215 0 312 143t97 377q0 219 -105.5 351t-304 132t-304 -132t-105.5 -351zM504 1653 q0 39 151 180q55 51 91 66.5t89.5 15.5t89.5 -15.5t91 -66.5q152 -141 151 -180q0 -45 -29.5 -75.5t-62.5 -30.5q-51 0 -108 59l-131 131l-131 -131q-57 -59 -109 -59q-33 0 -62.5 30.5t-29.5 75.5z" />
<glyph unicode="&#xd5;" horiz-adv-x="1671" d="M90 756q0 334 196.5 543.5t549 209.5t549 -209.5t196.5 -543.5q0 -160 -47 -300.5t-136 -251t-234.5 -175t-327.5 -64.5q-377 0 -561.5 217.5t-184.5 573.5zM426 756q0 -520 410 -520q215 0 312 143t97 377q0 219 -105.5 351t-304 132t-304 -132t-105.5 -351zM471 1702 q0 70 61.5 122t131.5 52q51 0 147 -35q90 -37 125 -36q27 0 76 36q47 35 86 35q102 0 102 -92q0 -70 -72.5 -130t-144.5 -60q-55 0 -145 36.5t-107 36.5q-35 0 -84 -36.5t-78 -36.5q-39 0 -68.5 26.5t-29.5 81.5z" />
<glyph unicode="&#xd6;" horiz-adv-x="1671" d="M90 756q0 334 196.5 543.5t549 209.5t549 -209.5t196.5 -543.5q0 -160 -47 -300.5t-136 -251t-234.5 -175t-327.5 -64.5q-377 0 -561.5 217.5t-184.5 573.5zM426 756q0 -520 410 -520q215 0 312 143t97 377q0 219 -105.5 351t-304 132t-304 -132t-105.5 -351zM477 1728.5 q0 61.5 44 105.5t105.5 44t105.5 -44t44 -105.5t-44 -105.5t-105.5 -44t-105.5 44t-44 105.5zM895 1728.5q0 61.5 44 105.5t105.5 44t105.5 -44t44 -105.5t-44 -105.5t-105.5 -44t-105.5 44t-44 105.5z" />
<glyph unicode="&#xd7;" horiz-adv-x="1228" d="M121 215q0 43 39 82l280 283l-280 282q-39 39 -39 82q0 57 38 93t95 36q39 0 78 -39l282 -280l283 280q39 39 78 39q57 0 95 -36t38 -93q0 -43 -39 -82l-281 -282l281 -283q39 -39 39 -82q0 -57 -38 -93t-95 -36q-39 0 -78 39l-283 281l-282 -281q-39 -39 -78 -39 q-57 0 -95 36t-38 93z" />
<glyph unicode="&#xd8;" horiz-adv-x="1671" d="M90 756q0 334 196.5 543.5t549.5 209.5q266 0 450 -127l88 99q55 66 107 65q92 0 92 -88q0 -37 -57 -102l-93 -103q158 -195 158 -497q0 -160 -47 -300.5t-136 -251t-234.5 -175t-327.5 -64.5q-283 0 -457 127l-107 -119q-41 -45 -88 -45q-41 0 -64.5 31t-23.5 61 q0 43 64 115l82 90q-152 199 -152 531zM426 756q0 -164 43 -279l616 682q-96 80 -249 80q-199 0 -304.5 -132t-105.5 -351zM580 315q100 -80 256 -79q215 0 312 143t97 377q0 141 -47 248z" />
<glyph unicode="&#xd9;" horiz-adv-x="1593" d="M156 553v780q0 76 46 122t121.5 46t122 -46t46.5 -122v-807q0 -291 305 -290.5t305 290.5v807q0 76 46 122t122 46t122 -46t46 -122v-780q0 -295 -169 -441.5t-472 -146.5t-472 146.5t-169 441.5zM512 1819q0 39 27.5 76t83.5 37q49 0 137 -70l151 -117q59 -49 59.5 -98 t-31.5 -74.5t-73 -25.5t-94 36l-184 125q-76 52 -76 111z" />
<glyph unicode="&#xda;" horiz-adv-x="1593" d="M156 553v780q0 76 46 122t121.5 46t122 -46t46.5 -122v-807q0 -291 305 -290.5t305 290.5v807q0 76 46 122t122 46t122 -46t46 -122v-780q0 -295 -169 -441.5t-472 -146.5t-472 146.5t-169 441.5zM623 1647q0 49 59 98l152 117q88 70 137 70q55 0 82.5 -37t27.5 -76 q0 -59 -75 -111l-185 -125q-53 -37 -94 -36.5t-72.5 26t-31.5 74.5z" />
<glyph unicode="&#xdb;" horiz-adv-x="1593" d="M156 553v780q0 76 46 122t121.5 46t122 -46t46.5 -122v-807q0 -291 305 -290.5t305 290.5v807q0 76 46 122t122 46t122 -46t46 -122v-780q0 -295 -169 -441.5t-472 -146.5t-472 146.5t-169 441.5zM465 1653q0 39 151 180q55 51 91 66.5t89.5 15.5t89.5 -15.5t91 -66.5 q152 -141 151 -180q0 -45 -29.5 -75.5t-62.5 -30.5q-51 0 -108 59l-131 131l-131 -131q-57 -59 -109 -59q-33 0 -62.5 30.5t-29.5 75.5z" />
<glyph unicode="&#xdc;" horiz-adv-x="1593" d="M156 553v780q0 76 46 122t121.5 46t122 -46t46.5 -122v-807q0 -291 305 -290.5t305 290.5v807q0 76 46 122t122 46t122 -46t46 -122v-780q0 -295 -169 -441.5t-472 -146.5t-472 146.5t-169 441.5zM438 1728.5q0 61.5 44 105.5t105.5 44t105.5 -44t44 -105.5t-44 -105.5 t-105.5 -44t-105.5 44t-44 105.5zM856 1728.5q0 61.5 44 105.5t105.5 44t105.5 -44t44 -105.5t-44 -105.5t-105.5 -44t-105.5 44t-44 105.5z" />
<glyph unicode="&#xdd;" horiz-adv-x="1253" d="M18 1348q0 78 54.5 115.5t115.5 37.5q57 0 91 -23.5t61 -74.5l293 -539l291 539q29 55 60.5 76.5t84.5 21.5q59 0 112.5 -38t53.5 -115q0 -41 -29 -88l-411 -685v-434q0 -76 -46.5 -122t-122 -46t-121.5 46.5t-46 121.5v434l-412 685q-29 47 -29 88zM453 1647q0 49 59 98 l152 117q88 70 137 70q55 0 82.5 -37t27.5 -76q0 -59 -75 -111l-185 -125q-53 -37 -94 -36.5t-72.5 26t-31.5 74.5z" />
<glyph unicode="&#xde;" horiz-adv-x="1441" d="M156 141v1192q0 76 46 122t121.5 46t122 -46t46.5 -122v-100h374q227 0 368.5 -117t141.5 -350q0 -207 -136 -337t-376 -130h-372v-158q0 -76 -46.5 -122t-122 -46t-121.5 46t-46 122zM492 557h313q102 0 168.5 57.5t66.5 151.5q0 209 -270 209h-278v-418z" />
<glyph unicode="&#xdf;" d="M119 123v917q0 225 129 346t375 121q186 0 327.5 -101t141.5 -286q0 -182 -181 -289q127 -35 192.5 -136t65.5 -238q0 -211 -129 -347.5t-333 -136.5q-70 0 -117 31t-47 90q0 39 10 62.5t39 36t46 16.5t62 10q158 25 158 236q0 121 -47 174t-164 73q-104 18 -104 103 q0 90 92 108q47 10 67.5 16.5t46 25t35 51t9.5 84.5q0 92 -48.5 144t-138.5 52q-102 0 -145 -67.5t-43 -165.5v-930q0 -72 -40 -111t-109.5 -39t-109.5 39t-40 111z" />
<glyph unicode="&#xe0;" d="M84 279q0 90 31.5 153.5t92 101t130.5 58t164 31.5l182 20q63 8 96 29.5t33 81.5q0 61 -53 92t-135 31q-76 0 -131.5 -26t-81 -56.5t-60.5 -56t-73 -25.5q-55 0 -91 33.5t-36 80.5q0 100 130 185.5t345 85.5q225 0 355 -76t130 -231v-502q0 -72 15.5 -129.5t15.5 -71.5 q0 -49 -40 -82t-95 -33q-168 0 -177 174q-158 -174 -409 -174q-135 0 -236.5 85.5t-101.5 220.5zM383 293q0 -51 45 -87t121 -36q119 0 191.5 64.5t72.5 152.5v117q-33 -31 -129 -47l-109 -17q-98 -14 -145 -47.5t-47 -99.5zM342 1446q0 39 27.5 76t83.5 37q49 0 137 -70 l151 -117q59 -49 59.5 -98t-31.5 -74.5t-73 -25.5t-94 36l-184 125q-76 52 -76 111z" />
<glyph unicode="&#xe1;" d="M84 279q0 90 31.5 153.5t92 101t130.5 58t164 31.5l182 20q63 8 96 29.5t33 81.5q0 61 -53 92t-135 31q-76 0 -131.5 -26t-81 -56.5t-60.5 -56t-73 -25.5q-55 0 -91 33.5t-36 80.5q0 100 130 185.5t345 85.5q225 0 355 -76t130 -231v-502q0 -72 15.5 -129.5t15.5 -71.5 q0 -49 -40 -82t-95 -33q-168 0 -177 174q-158 -174 -409 -174q-135 0 -236.5 85.5t-101.5 220.5zM383 293q0 -51 45 -87t121 -36q119 0 191.5 64.5t72.5 152.5v117q-33 -31 -129 -47l-109 -17q-98 -14 -145 -47.5t-47 -99.5zM453 1274q0 49 59 98l152 117q88 70 137 70 q55 0 82.5 -37t27.5 -76q0 -59 -75 -111l-185 -125q-53 -37 -94 -36.5t-72.5 26t-31.5 74.5z" />
<glyph unicode="&#xe2;" d="M84 279q0 90 31.5 153.5t92 101t130.5 58t164 31.5l182 20q63 8 96 29.5t33 81.5q0 61 -53 92t-135 31q-76 0 -131.5 -26t-81 -56.5t-60.5 -56t-73 -25.5q-55 0 -91 33.5t-36 80.5q0 100 130 185.5t345 85.5q225 0 355 -76t130 -231v-502q0 -72 15.5 -129.5t15.5 -71.5 q0 -49 -40 -82t-95 -33q-168 0 -177 174q-158 -174 -409 -174q-135 0 -236.5 85.5t-101.5 220.5zM383 293q0 -51 45 -87t121 -36q119 0 191.5 64.5t72.5 152.5v117q-33 -31 -129 -47l-109 -17q-98 -14 -145 -47.5t-47 -99.5zM295 1280q0 39 151 180q55 51 91 66.5t89.5 15.5 t89.5 -15.5t91 -66.5q152 -141 151 -180q0 -45 -29.5 -75.5t-62.5 -30.5q-51 0 -108 59l-131 131l-131 -131q-57 -59 -109 -59q-33 0 -62.5 30.5t-29.5 75.5z" />
<glyph unicode="&#xe3;" d="M84 279q0 90 31.5 153.5t92 101t130.5 58t164 31.5l182 20q63 8 96 29.5t33 81.5q0 61 -53 92t-135 31q-76 0 -131.5 -26t-81 -56.5t-60.5 -56t-73 -25.5q-55 0 -91 33.5t-36 80.5q0 100 130 185.5t345 85.5q225 0 355 -76t130 -231v-502q0 -72 15.5 -129.5t15.5 -71.5 q0 -49 -40 -82t-95 -33q-168 0 -177 174q-158 -174 -409 -174q-135 0 -236.5 85.5t-101.5 220.5zM383 293q0 -51 45 -87t121 -36q119 0 191.5 64.5t72.5 152.5v117q-33 -31 -129 -47l-109 -17q-98 -14 -145 -47.5t-47 -99.5zM262 1329q0 70 61.5 122t131.5 52q51 0 147 -35 q90 -37 125 -36q27 0 76 36q47 35 86 35q102 0 102 -92q0 -70 -72.5 -130t-144.5 -60q-55 0 -145 36.5t-107 36.5q-35 0 -84 -36.5t-78 -36.5q-39 0 -68.5 26.5t-29.5 81.5z" />
<glyph unicode="&#xe4;" d="M84 279q0 90 31.5 153.5t92 101t130.5 58t164 31.5l182 20q63 8 96 29.5t33 81.5q0 61 -53 92t-135 31q-76 0 -131.5 -26t-81 -56.5t-60.5 -56t-73 -25.5q-55 0 -91 33.5t-36 80.5q0 100 130 185.5t345 85.5q225 0 355 -76t130 -231v-502q0 -72 15.5 -129.5t15.5 -71.5 q0 -49 -40 -82t-95 -33q-168 0 -177 174q-158 -174 -409 -174q-135 0 -236.5 85.5t-101.5 220.5zM383 293q0 -51 45 -87t121 -36q119 0 191.5 64.5t72.5 152.5v117q-33 -31 -129 -47l-109 -17q-98 -14 -145 -47.5t-47 -99.5zM268 1355.5q0 61.5 44 105.5t105.5 44t105.5 -44 t44 -105.5t-44 -105.5t-105.5 -44t-105.5 44t-44 105.5zM686 1355.5q0 61.5 44 105.5t105.5 44t105.5 -44t44 -105.5t-44 -105.5t-105.5 -44t-105.5 44t-44 105.5z" />
<glyph unicode="&#xe5;" d="M84 279q0 90 31.5 153.5t92 101t130.5 58t164 31.5l182 20q63 8 96 29.5t33 81.5q0 61 -53 92t-135 31q-76 0 -131.5 -26t-81 -56.5t-60.5 -56t-73 -25.5q-55 0 -91 33.5t-36 80.5q0 100 130 185.5t345 85.5q225 0 355 -76t130 -231v-502q0 -72 15.5 -129.5t15.5 -71.5 q0 -49 -40 -82t-95 -33q-168 0 -177 174q-158 -174 -409 -174q-135 0 -236.5 85.5t-101.5 220.5zM383 293q0 -51 45 -87t121 -36q119 0 191.5 64.5t72.5 152.5v117q-33 -31 -129 -47l-109 -17q-98 -14 -145 -47.5t-47 -99.5zM405 1378q0 92 65 156.5t157 64.5t156.5 -64.5 t64.5 -156.5t-64.5 -156.5t-156.5 -64.5t-157 64.5t-65 156.5zM520 1378q0 -45 31 -75.5t76 -30.5t75.5 30.5t30.5 75.5t-30.5 76t-75.5 31t-76 -31t-31 -76z" />
<glyph unicode="&#xe6;" horiz-adv-x="1933" d="M84 279q0 90 31.5 153.5t92 101t130.5 58t164 31.5l182 20q63 8 96 29.5t33 81.5q0 61 -53 92t-135 31q-76 0 -131.5 -26t-81 -56.5t-60.5 -56t-73 -25.5q-55 0 -91 33.5t-36 80.5q0 100 130 185.5t345 85.5q231 0 368 -131q141 131 348 131q229 0 373 -147.5t144 -342.5 q0 -76 -28 -102.5t-103 -26.5h-658q0 -121 77 -196.5t181 -75.5q76 0 131.5 23.5t81 50t60 50t73.5 23.5q51 0 87 -36.5t36 -79.5q0 -84 -82 -147.5t-185.5 -90.5t-201.5 -27q-137 0 -230 43t-179 154q-170 -197 -445 -197q-170 0 -280.5 83.5t-110.5 222.5zM383 293 q0 -51 45 -87t121 -36q119 0 191.5 64.5t72.5 152.5v117q-33 -31 -129 -47l-109 -17q-98 -14 -145 -47.5t-47 -99.5zM1071 651h506q-12 102 -79.5 170t-154.5 68q-219 0 -272 -238z" />
<glyph unicode="&#xe7;" horiz-adv-x="1099" d="M61 514q0 264 146.5 424t415.5 160q182 0 309 -86t127 -195q0 -61 -40 -95t-99 -34q-47 0 -78 27.5t-47.5 60.5t-62.5 60.5t-118 27.5q-104 0 -179 -83t-75 -267q0 -141 66 -224t186 -83q70 0 116 29.5t64.5 66.5t54.5 66.5t87 29.5q55 0 90 -33.5t35 -80.5 q0 -102 -102.5 -195.5t-282.5 -109.5l-62 -93h15q193 0 192 -143q0 -82 -72.5 -132t-175.5 -50q-84 0 -127 25.5t-43 58.5q0 20 14.5 36.5t35.5 16.5q8 0 49 -11.5t63 -11.5q33 0 52.5 18.5t19.5 47.5q0 53 -51 53q-16 0 -38 -3t-28 -3q-47 0 -47 41q0 12 23 49l63 98 q-244 12 -370 158t-126 379z" />
<glyph unicode="&#xe8;" horiz-adv-x="1253" d="M74 516q0 264 151.5 423t413.5 159q246 0 393.5 -146.5t147.5 -343.5q0 -76 -28 -102.5t-103 -26.5h-676q0 -121 73.5 -196.5t202.5 -75.5q76 0 131.5 23.5t81 50t60 50t73.5 23.5q51 0 87 -36.5t36 -79.5q0 -84 -82 -147.5t-185 -90.5t-202 -27q-150 0 -265.5 47.5 t-180 127t-97 173t-32.5 195.5zM373 651h524q-12 104 -83 171t-169 67q-219 0 -272 -238zM342 1446q0 39 27.5 76t83.5 37q49 0 137 -70l151 -117q59 -49 59.5 -98t-31.5 -74.5t-73 -25.5t-94 36l-184 125q-76 52 -76 111z" />
<glyph unicode="&#xe9;" horiz-adv-x="1253" d="M74 516q0 264 151.5 423t413.5 159q246 0 393.5 -146.5t147.5 -343.5q0 -76 -28 -102.5t-103 -26.5h-676q0 -121 73.5 -196.5t202.5 -75.5q76 0 131.5 23.5t81 50t60 50t73.5 23.5q51 0 87 -36.5t36 -79.5q0 -84 -82 -147.5t-185 -90.5t-202 -27q-150 0 -265.5 47.5 t-180 127t-97 173t-32.5 195.5zM373 651h524q-12 104 -83 171t-169 67q-219 0 -272 -238zM453 1274q0 49 59 98l152 117q88 70 137 70q55 0 82.5 -37t27.5 -76q0 -59 -75 -111l-185 -125q-53 -37 -94 -36.5t-72.5 26t-31.5 74.5z" />
<glyph unicode="&#xea;" horiz-adv-x="1253" d="M74 516q0 264 151.5 423t413.5 159q246 0 393.5 -146.5t147.5 -343.5q0 -76 -28 -102.5t-103 -26.5h-676q0 -121 73.5 -196.5t202.5 -75.5q76 0 131.5 23.5t81 50t60 50t73.5 23.5q51 0 87 -36.5t36 -79.5q0 -84 -82 -147.5t-185 -90.5t-202 -27q-150 0 -265.5 47.5 t-180 127t-97 173t-32.5 195.5zM373 651h524q-12 104 -83 171t-169 67q-219 0 -272 -238zM295 1280q0 39 151 180q55 51 91 66.5t89.5 15.5t89.5 -15.5t91 -66.5q152 -141 151 -180q0 -45 -29.5 -75.5t-62.5 -30.5q-51 0 -108 59l-131 131l-131 -131q-57 -59 -109 -59 q-33 0 -62.5 30.5t-29.5 75.5z" />
<glyph unicode="&#xeb;" horiz-adv-x="1253" d="M74 516q0 264 151.5 423t413.5 159q246 0 393.5 -146.5t147.5 -343.5q0 -76 -28 -102.5t-103 -26.5h-676q0 -121 73.5 -196.5t202.5 -75.5q76 0 131.5 23.5t81 50t60 50t73.5 23.5q51 0 87 -36.5t36 -79.5q0 -84 -82 -147.5t-185 -90.5t-202 -27q-150 0 -265.5 47.5 t-180 127t-97 173t-32.5 195.5zM373 651h524q-12 104 -83 171t-169 67q-219 0 -272 -238zM268 1355.5q0 61.5 44 105.5t105.5 44t105.5 -44t44 -105.5t-44 -105.5t-105.5 -44t-105.5 44t-44 105.5zM686 1355.5q0 61.5 44 105.5t105.5 44t105.5 -44t44 -105.5t-44 -105.5 t-105.5 -44t-105.5 44t-44 105.5z" />
<glyph unicode="&#xec;" horiz-adv-x="569" d="M135 123v825q0 150 149.5 150t149.5 -150v-825q0 -150 -149.5 -150t-149.5 150zM0 1446q0 39 27.5 76t83.5 37q49 0 137 -70l151 -117q59 -49 59.5 -98t-31.5 -74.5t-73 -25.5t-94 36l-184 125q-76 52 -76 111z" />
<glyph unicode="&#xed;" horiz-adv-x="569" d="M135 123v825q0 150 149.5 150t149.5 -150v-825q0 -150 -149.5 -150t-149.5 150zM111 1274q0 49 59 98l152 117q88 70 137 70q55 0 82.5 -37t27.5 -76q0 -59 -75 -111l-185 -125q-53 -37 -94 -36.5t-72.5 26t-31.5 74.5z" />
<glyph unicode="&#xee;" horiz-adv-x="569" d="M135 123v825q0 150 149.5 150t149.5 -150v-825q0 -150 -149.5 -150t-149.5 150zM-47 1280q0 39 151 180q55 51 91 66.5t89.5 15.5t89.5 -15.5t91 -66.5q152 -141 151 -180q0 -45 -29.5 -75.5t-62.5 -30.5q-51 0 -108 59l-131 131l-131 -131q-57 -59 -109 -59 q-33 0 -62.5 30.5t-29.5 75.5z" />
<glyph unicode="&#xef;" horiz-adv-x="569" d="M135 123v825q0 150 149.5 150t149.5 -150v-825q0 -150 -149.5 -150t-149.5 150zM-74 1355.5q0 61.5 44 105.5t105.5 44t105.5 -44t44 -105.5t-44 -105.5t-105.5 -44t-105.5 44t-44 105.5zM344 1355.5q0 61.5 44 105.5t105.5 44t105.5 -44t44 -105.5t-44 -105.5 t-105.5 -44t-105.5 44t-44 105.5z" />
<glyph unicode="&#xf0;" horiz-adv-x="1253" d="M74 537q0 244 146.5 402.5t395.5 158.5q137 0 197 -64l4 4q-51 131 -153 217l-211 -94q-29 -12 -54 -12q-27 0 -45 17.5t-18 45.5q0 45 59 72l148 66q-37 20 -87 32.5t-72 23.5t-22 40q0 63 97 63q162 0 291 -67l170 76q29 12 53 12q27 0 45 -17.5t18 -46.5 q0 -45 -59 -71l-92 -41q147 -127 221 -334t74 -434q0 -281 -133.5 -447t-419.5 -166q-147 0 -257 45t-173.5 125t-93 178.5t-29.5 215.5zM373 537q0 -147 63.5 -244.5t190.5 -97.5t190.5 97t63.5 245q0 154 -64.5 247t-189.5 93t-189.5 -93t-64.5 -247z" />
<glyph unicode="&#xf1;" d="M119 123v825q0 150 135 150t135 -150v-39h4q143 188 363 189q72 0 135 -19.5t119.5 -62.5t89.5 -123t33 -188v-582q0 -150 -149.5 -150t-149.5 150v522q0 94 -47.5 150.5t-141.5 56.5q-86 0 -156.5 -65.5t-70.5 -170.5v-493q0 -150 -149.5 -150t-149.5 150zM262 1329 q0 70 61.5 122t131.5 52q51 0 147 -35q90 -37 125 -36q27 0 76 36q47 35 86 35q102 0 102 -92q0 -70 -72.5 -130t-144.5 -60q-55 0 -145 36.5t-107 36.5q-35 0 -84 -36.5t-78 -36.5q-39 0 -68.5 26.5t-29.5 81.5z" />
<glyph unicode="&#xf2;" horiz-adv-x="1253" d="M74 537q0 246 145.5 403.5t407.5 157.5t407.5 -158t145.5 -403q0 -117 -30 -215.5t-93.5 -178.5t-173 -125t-257 -45t-257 45t-173 125t-93 178.5t-29.5 215.5zM373 537q0 -147 63.5 -244.5t190.5 -97.5t190.5 97t63.5 245q0 154 -64.5 247t-189.5 93t-189.5 -93 t-64.5 -247zM342 1446q0 39 27.5 76t83.5 37q49 0 137 -70l151 -117q59 -49 59.5 -98t-31.5 -74.5t-73 -25.5t-94 36l-184 125q-76 52 -76 111z" />
<glyph unicode="&#xf3;" horiz-adv-x="1253" d="M74 537q0 246 145.5 403.5t407.5 157.5t407.5 -158t145.5 -403q0 -117 -30 -215.5t-93.5 -178.5t-173 -125t-257 -45t-257 45t-173 125t-93 178.5t-29.5 215.5zM373 537q0 -147 63.5 -244.5t190.5 -97.5t190.5 97t63.5 245q0 154 -64.5 247t-189.5 93t-189.5 -93 t-64.5 -247zM453 1274q0 49 59 98l152 117q88 70 137 70q55 0 82.5 -37t27.5 -76q0 -59 -75 -111l-185 -125q-53 -37 -94 -36.5t-72.5 26t-31.5 74.5z" />
<glyph unicode="&#xf4;" horiz-adv-x="1253" d="M74 537q0 246 145.5 403.5t407.5 157.5t407.5 -158t145.5 -403q0 -117 -30 -215.5t-93.5 -178.5t-173 -125t-257 -45t-257 45t-173 125t-93 178.5t-29.5 215.5zM373 537q0 -147 63.5 -244.5t190.5 -97.5t190.5 97t63.5 245q0 154 -64.5 247t-189.5 93t-189.5 -93 t-64.5 -247zM295 1280q0 39 151 180q55 51 91 66.5t89.5 15.5t89.5 -15.5t91 -66.5q152 -141 151 -180q0 -45 -29.5 -75.5t-62.5 -30.5q-51 0 -108 59l-131 131l-131 -131q-57 -59 -109 -59q-33 0 -62.5 30.5t-29.5 75.5z" />
<glyph unicode="&#xf5;" horiz-adv-x="1253" d="M74 537q0 246 145.5 403.5t407.5 157.5t407.5 -158t145.5 -403q0 -117 -30 -215.5t-93.5 -178.5t-173 -125t-257 -45t-257 45t-173 125t-93 178.5t-29.5 215.5zM373 537q0 -147 63.5 -244.5t190.5 -97.5t190.5 97t63.5 245q0 154 -64.5 247t-189.5 93t-189.5 -93 t-64.5 -247zM262 1329q0 70 61.5 122t131.5 52q51 0 147 -35q90 -37 125 -36q27 0 76 36q47 35 86 35q102 0 102 -92q0 -70 -72.5 -130t-144.5 -60q-55 0 -145 36.5t-107 36.5q-35 0 -84 -36.5t-78 -36.5q-39 0 -68.5 26.5t-29.5 81.5z" />
<glyph unicode="&#xf6;" horiz-adv-x="1253" d="M74 537q0 246 145.5 403.5t407.5 157.5t407.5 -158t145.5 -403q0 -117 -30 -215.5t-93.5 -178.5t-173 -125t-257 -45t-257 45t-173 125t-93 178.5t-29.5 215.5zM373 537q0 -147 63.5 -244.5t190.5 -97.5t190.5 97t63.5 245q0 154 -64.5 247t-189.5 93t-189.5 -93 t-64.5 -247zM268 1355.5q0 61.5 44 105.5t105.5 44t105.5 -44t44 -105.5t-44 -105.5t-105.5 -44t-105.5 44t-44 105.5zM686 1355.5q0 61.5 44 105.5t105.5 44t105.5 -44t44 -105.5t-44 -105.5t-105.5 -44t-105.5 44t-44 105.5z" />
<glyph unicode="&#xf7;" horiz-adv-x="1228" d="M35 580q0 55 40 88.5t103 33.5h873q63 0 103 -33.5t40 -89t-40 -89t-103 -33.5h-873q-61 0 -102 37t-41 86zM434 155.5q0 75.5 52.5 128t128 52.5t128 -52.5t52.5 -128t-52.5 -128t-128 -52.5t-128 52.5t-52.5 128zM434 1003.5q0 75.5 52.5 128t128 52.5t128 -52.5 t52.5 -128t-52.5 -128t-128 -52.5t-128 52.5t-52.5 128z" />
<glyph unicode="&#xf8;" horiz-adv-x="1253" d="M45 10q0 35 43 78l84 88q-98 139 -98 361q0 246 145.5 403.5t407.5 157.5q201 0 338 -99l86 88q47 47 86 48q29 0 50 -21.5t21 -52.5q0 -35 -43 -78l-90 -94q104 -143 105 -352q0 -117 -30 -215.5t-93.5 -178.5t-173 -125t-256.5 -45q-211 0 -344 95l-80 -84 q-47 -47 -86 -47q-29 0 -50.5 21t-21.5 52zM373 537q0 -78 16 -136l399 414q-66 61 -161 62q-125 0 -189.5 -93t-64.5 -247zM467 258q63 -63 160 -63q127 0 190.5 97t63.5 245q0 78 -15 135z" />
<glyph unicode="&#xf9;" d="M119 367v581q0 150 149.5 150t149.5 -150v-522q0 -94 47 -150.5t141 -56.5q86 0 157 65.5t71 170.5v493q0 150 149.5 150t149.5 -150v-825q0 -150 -135.5 -150t-135.5 150v39h-4q-143 -188 -362 -189q-72 0 -135.5 19.5t-120 62.5t-89 123t-32.5 189zM342 1446 q0 39 27.5 76t83.5 37q49 0 137 -70l151 -117q59 -49 59.5 -98t-31.5 -74.5t-73 -25.5t-94 36l-184 125q-76 52 -76 111z" />
<glyph unicode="&#xfa;" d="M119 367v581q0 150 149.5 150t149.5 -150v-522q0 -94 47 -150.5t141 -56.5q86 0 157 65.5t71 170.5v493q0 150 149.5 150t149.5 -150v-825q0 -150 -135.5 -150t-135.5 150v39h-4q-143 -188 -362 -189q-72 0 -135.5 19.5t-120 62.5t-89 123t-32.5 189zM453 1274 q0 49 59 98l152 117q88 70 137 70q55 0 82.5 -37t27.5 -76q0 -59 -75 -111l-185 -125q-53 -37 -94 -36.5t-72.5 26t-31.5 74.5z" />
<glyph unicode="&#xfb;" d="M119 367v581q0 150 149.5 150t149.5 -150v-522q0 -94 47 -150.5t141 -56.5q86 0 157 65.5t71 170.5v493q0 150 149.5 150t149.5 -150v-825q0 -150 -135.5 -150t-135.5 150v39h-4q-143 -188 -362 -189q-72 0 -135.5 19.5t-120 62.5t-89 123t-32.5 189zM295 1280 q0 39 151 180q55 51 91 66.5t89.5 15.5t89.5 -15.5t91 -66.5q152 -141 151 -180q0 -45 -29.5 -75.5t-62.5 -30.5q-51 0 -108 59l-131 131l-131 -131q-57 -59 -109 -59q-33 0 -62.5 30.5t-29.5 75.5z" />
<glyph unicode="&#xfc;" d="M119 367v581q0 150 149.5 150t149.5 -150v-522q0 -94 47 -150.5t141 -56.5q86 0 157 65.5t71 170.5v493q0 150 149.5 150t149.5 -150v-825q0 -150 -135.5 -150t-135.5 150v39h-4q-143 -188 -362 -189q-72 0 -135.5 19.5t-120 62.5t-89 123t-32.5 189zM268 1355.5 q0 61.5 44 105.5t105.5 44t105.5 -44t44 -105.5t-44 -105.5t-105.5 -44t-105.5 44t-44 105.5zM686 1355.5q0 61.5 44 105.5t105.5 44t105.5 -44t44 -105.5t-44 -105.5t-105.5 -44t-105.5 44t-44 105.5z" />
<glyph unicode="&#xfd;" horiz-adv-x="1024" d="M25 954q0 61 42 102.5t103 41.5q123 0 154 -113l192 -698h4l182 678q37 133 144 133q78 0 115.5 -47t37.5 -88q0 -33 -22 -95l-346 -981q-57 -164 -132 -237.5t-210 -73.5q-94 0 -141.5 39t-47.5 98q0 57 38 89t100 32h30q27 0 41.5 3t33.5 25.5t30 65.5l-312 887 q-36 106 -36 139zM338 1274q0 49 59 98l152 117q88 70 137 70q55 0 82.5 -37t27.5 -76q0 -59 -75 -111l-185 -125q-53 -37 -94 -36.5t-72.5 26t-31.5 74.5z" />
<glyph unicode="&#xfe;" d="M119 -274v1626q0 72 40 110.5t109.5 38.5t109.5 -39t40 -110v-389h4q33 57 106.5 96t180.5 39q201 0 335 -146.5t134 -423.5q0 -233 -119 -394t-342 -161q-207 0 -295 152h-4v-399q0 -72 -40 -111t-109.5 -39t-109.5 39t-40 111zM401 539q0 -135 57.5 -234.5t182.5 -97.5 q68 0 117 31.5t73.5 83t36 105.5t11.5 112q0 139 -61.5 231t-176.5 94q-123 0 -181.5 -92t-58.5 -233z" />
<glyph unicode="&#xff;" horiz-adv-x="1024" d="M25 954q0 61 42 102.5t103 41.5q123 0 154 -113l192 -698h4l182 678q37 133 144 133q78 0 115.5 -47t37.5 -88q0 -33 -22 -95l-346 -981q-57 -164 -132 -237.5t-210 -73.5q-94 0 -141.5 39t-47.5 98q0 57 38 89t100 32h30q27 0 41.5 3t33.5 25.5t30 65.5l-312 887 q-36 106 -36 139zM153 1355.5q0 61.5 44 105.5t105.5 44t105.5 -44t44 -105.5t-44 -105.5t-105.5 -44t-105.5 44t-44 105.5zM571 1355.5q0 61.5 44 105.5t105.5 44t105.5 -44t44 -105.5t-44 -105.5t-105.5 -44t-105.5 44t-44 105.5z" />
<glyph unicode="&#x131;" horiz-adv-x="569" d="M135 123v825q0 150 149.5 150t149.5 -150v-825q0 -150 -149.5 -150t-149.5 150z" />
<glyph unicode="&#x152;" horiz-adv-x="2048" d="M90 702q0 121 18.5 231.5t64.5 216t115.5 181.5t178 123t246.5 47q240 0 362 -170q10 80 49 112t111 32h602q170 0 170 -135.5t-170 -135.5h-457v-319h449q158 0 158 -129t-158 -129h-449v-357h473q170 0 170 -135t-170 -135h-608q-92 0 -125 34t-45 107 q-121 -168 -397 -168q-193 0 -330 106.5t-197.5 267t-60.5 355.5zM426 698q0 -229 91 -348t237 -119q127 0 215 96.5t88 256.5v305q0 145 -81 249.5t-216 104.5q-160 0 -247 -141.5t-87 -403.5z" />
<glyph unicode="&#x153;" horiz-adv-x="1972" d="M74 537q0 246 145.5 403.5t407.5 157.5q227 0 368 -170q156 170 387 170q229 0 372.5 -147.5t143.5 -342.5q0 -76 -27.5 -102.5t-103.5 -26.5h-639q0 -121 71 -196.5t169 -75.5q76 0 131 23.5t81 50t60.5 50t73.5 23.5q51 0 87 -36.5t36 -79.5q0 -84 -82 -147.5 t-185.5 -90.5t-201.5 -27q-268 0 -377 174q-141 -174 -401 -174q-135 0 -236.5 45t-161 125t-89 178.5t-29.5 215.5zM373 537q0 -147 63.5 -244.5t190.5 -97.5q121 0 182 97t61 245q0 154 -61 247t-182 93q-125 0 -189.5 -93t-64.5 -247zM1128 651h488q-12 102 -80 170 t-154 68q-111 0 -169 -60.5t-85 -177.5z" />
<glyph unicode="&#x178;" horiz-adv-x="1253" d="M18 1348q0 78 54.5 115.5t115.5 37.5q57 0 91 -23.5t61 -74.5l293 -539l291 539q29 55 60.5 76.5t84.5 21.5q59 0 112.5 -38t53.5 -115q0 -41 -29 -88l-411 -685v-434q0 -76 -46.5 -122t-122 -46t-121.5 46.5t-46 121.5v434l-412 685q-29 47 -29 88zM268 1728.5 q0 61.5 44 105.5t105.5 44t105.5 -44t44 -105.5t-44 -105.5t-105.5 -44t-105.5 44t-44 105.5zM686 1728.5q0 61.5 44 105.5t105.5 44t105.5 -44t44 -105.5t-44 -105.5t-105.5 -44t-105.5 44t-44 105.5z" />
<glyph unicode="&#x2c6;" horiz-adv-x="569" d="M-47 1280q0 39 151 180q55 51 91 66.5t89.5 15.5t89.5 -15.5t91 -66.5q152 -141 151 -180q0 -45 -29.5 -75.5t-62.5 -30.5q-51 0 -108 59l-131 131l-131 -131q-57 -59 -109 -59q-33 0 -62.5 30.5t-29.5 75.5z" />
<glyph unicode="&#x2da;" horiz-adv-x="569" d="M63 1378q0 92 65 156.5t157 64.5t156.5 -64.5t64.5 -156.5t-64.5 -156.5t-156.5 -64.5t-157 64.5t-65 156.5zM178 1378q0 -45 31 -75.5t76 -30.5t75.5 30.5t30.5 75.5t-30.5 76t-75.5 31t-76 -31t-31 -76z" />
<glyph unicode="&#x2dc;" horiz-adv-x="569" d="M-80 1329q0 70 61.5 122t131.5 52q51 0 147 -35q90 -37 125 -36q27 0 76 36q47 35 86 35q102 0 102 -92q0 -70 -72.5 -130t-144.5 -60q-55 0 -145 36.5t-107 36.5q-35 0 -84 -36.5t-78 -36.5q-39 0 -68.5 26.5t-29.5 81.5z" />
<glyph unicode="&#x3bc;" d="M119 -274v1222q0 150 149.5 150t149.5 -150v-522q0 -94 47 -150.5t141 -56.5q86 0 157 65.5t71 170.5v493q0 150 149.5 150t149.5 -150v-825q0 -150 -135.5 -150t-135.5 150v39h-4q-63 -84 -150 -136.5t-171 -52.5q-88 0 -119 27v-274q0 -72 -40 -111t-109.5 -39 t-109.5 39t-40 111z" />
<glyph unicode="&#x2000;" horiz-adv-x="985" />
<glyph unicode="&#x2001;" horiz-adv-x="1972" />
<glyph unicode="&#x2002;" horiz-adv-x="985" />
<glyph unicode="&#x2003;" horiz-adv-x="1972" />
<glyph unicode="&#x2004;" horiz-adv-x="657" />
<glyph unicode="&#x2005;" horiz-adv-x="491" />
<glyph unicode="&#x2006;" horiz-adv-x="327" />
<glyph unicode="&#x2007;" horiz-adv-x="327" />
<glyph unicode="&#x2008;" horiz-adv-x="245" />
<glyph unicode="&#x2009;" horiz-adv-x="393" />
<glyph unicode="&#x200a;" horiz-adv-x="108" />
<glyph unicode="&#x2010;" horiz-adv-x="833" d="M82 565.5q0 141.5 166 141.5h338q166 0 166 -141.5t-166 -141.5h-338q-166 0 -166 141.5z" />
<glyph unicode="&#x2011;" horiz-adv-x="833" d="M82 565.5q0 141.5 166 141.5h338q166 0 166 -141.5t-166 -141.5h-338q-166 0 -166 141.5z" />
<glyph unicode="&#x2012;" horiz-adv-x="833" d="M82 565.5q0 141.5 166 141.5h338q166 0 166 -141.5t-166 -141.5h-338q-166 0 -166 141.5z" />
<glyph unicode="&#x2013;" horiz-adv-x="1024" d="M20 565.5q0 110.5 121 110.5h742q121 0 121 -110.5t-121 -110.5h-742q-121 0 -121 110.5z" />
<glyph unicode="&#x2014;" horiz-adv-x="2048" d="M20 565.5q0 110.5 121 110.5h1766q121 0 121 -110.5t-121 -110.5h-1766q-121 0 -121 110.5z" />
<glyph unicode="&#x2018;" horiz-adv-x="647" d="M143 1139q0 98 26 158.5t79 115.5q29 27 86 57.5t100 30.5q33 0 51.5 -17.5t18.5 -43.5q0 -29 -33 -48.5t-72 -32.5t-73.5 -56t-38.5 -115q33 18 69 18q68 0 108 -46t40 -111q0 -70 -49 -119t-119 -49q-94 0 -143.5 72.5t-49.5 185.5z" />
<glyph unicode="&#x2019;" horiz-adv-x="647" d="M143 942q0 29 33 48.5t72 32.5t73.5 56t38.5 115q-33 -18 -69 -18q-68 0 -108 46t-40 111q0 70 49.5 119t118.5 49q94 0 143.5 -72.5t49.5 -185.5q0 -98 -25.5 -158.5t-79.5 -115.5q-29 -27 -86 -57.5t-100 -30.5q-33 0 -51.5 17t-18.5 44z" />
<glyph unicode="&#x201a;" horiz-adv-x="647" d="M143 154q0 70 49.5 119t118.5 49q94 0 143.5 -73t49.5 -186q0 -98 -25.5 -158.5t-79.5 -115.5q-29 -27 -86 -57.5t-100 -30.5q-33 0 -51.5 17.5t-18.5 43.5q0 29 33 48.5t72 33t73.5 56.5t38.5 114q-33 -18 -69 -18q-68 0 -108 46t-40 112z" />
<glyph unicode="&#x201c;" horiz-adv-x="1099" d="M137 1139q0 98 25.5 158.5t79.5 115.5q29 27 86 57.5t100 30.5q33 0 51.5 -17.5t18.5 -43.5q0 -29 -33 -48.5t-72 -32.5t-73.5 -56t-38.5 -115q33 18 69 18q68 0 108 -46t40 -111q0 -70 -49.5 -119t-118.5 -49q-94 0 -143.5 72.5t-49.5 185.5zM602 1139q0 98 25.5 158.5 t79.5 115.5q29 27 86 57.5t100 30.5q33 0 51.5 -17.5t18.5 -43.5q0 -29 -33 -48.5t-72 -32.5t-73.5 -56t-39.5 -115q33 18 70 18q68 0 108 -46t40 -111q0 -70 -49.5 -119t-118.5 -49q-94 0 -143.5 72.5t-49.5 185.5z" />
<glyph unicode="&#x201d;" horiz-adv-x="1099" d="M137 942q0 29 33 48.5t72 32.5t73.5 56t38.5 115q-33 -18 -69 -18q-68 0 -108 46t-40 111q0 70 49.5 119t118.5 49q94 0 143.5 -72.5t49.5 -185.5q0 -98 -26 -158.5t-79 -115.5q-29 -27 -86 -57.5t-100 -30.5q-33 0 -51.5 17t-18.5 44zM602 942q0 29 33 48.5t71.5 32.5 t73.5 56t39 115q-33 -18 -69 -18q-68 0 -108 46t-40 111q0 70 49 119t119 49q94 0 143.5 -72.5t49.5 -185.5q0 -98 -26 -158.5t-79 -115.5q-29 -27 -86 -57.5t-100 -30.5q-33 0 -51.5 17t-18.5 44z" />
<glyph unicode="&#x201e;" horiz-adv-x="1099" d="M137 154q0 70 49.5 119t118.5 49q94 0 143.5 -73t49.5 -186q0 -98 -26 -158.5t-79 -115.5q-29 -27 -86 -57.5t-100 -30.5q-33 0 -51.5 17.5t-18.5 43.5q0 29 33 48.5t72 33t73.5 56.5t38.5 114q-33 -18 -69 -18q-68 0 -108 46t-40 112zM602 154q0 70 49 119t119 49 q94 0 143.5 -73t49.5 -186q0 -98 -26 -158.5t-79 -115.5q-29 -27 -86 -57.5t-100 -30.5q-33 0 -51.5 17.5t-18.5 43.5q0 29 33 48.5t71.5 33t73.5 56.5t39 114q-33 -18 -69 -18q-68 0 -108 46t-40 112z" />
<glyph unicode="&#x2022;" horiz-adv-x="1024" d="M143 737.5q0 151.5 108.5 260t260.5 108.5t260.5 -108.5t108.5 -260t-108.5 -260t-260.5 -108.5t-260.5 108.5t-108.5 260z" />
<glyph unicode="&#x2026;" horiz-adv-x="2048" d="M174 153.5q0 69.5 49 119t119 49.5t119 -49.5t49 -119t-49 -118.5t-119 -49t-119 49t-49 118.5zM856 153.5q0 69.5 49 119t119 49.5t119 -49.5t49 -119t-49 -118.5t-119 -49t-119 49t-49 118.5zM1538 153.5q0 69.5 49 119t119 49.5t119 -49.5t49 -119t-49 -118.5 t-119 -49t-119 49t-49 118.5z" />
<glyph unicode="&#x202f;" horiz-adv-x="393" />
<glyph unicode="&#x2039;" horiz-adv-x="757" d="M156 565.5q0 100.5 69 149.5l201 145q47 33 80 33q41 0 68.5 -32t27.5 -75q0 -63 -65 -106l-168 -115l168 -114q66 -43 65 -107q0 -43 -27.5 -74.5t-68.5 -31.5q-33 0 -80 32l-201 146q-69 49 -69 149.5z" />
<glyph unicode="&#x203a;" horiz-adv-x="757" d="M156 344q0 63 65 107l168 114l-168 115q-66 43 -65 106q0 43 27.5 75t68.5 32q33 0 80 -33l200 -145q70 -49 70 -149.5t-70 -149.5l-200 -146q-47 -33 -80 -32q-41 0 -68.5 31.5t-27.5 74.5z" />
<glyph unicode="&#x205f;" horiz-adv-x="491" />
<glyph unicode="&#x2122;" horiz-adv-x="2048" d="M35 1382.5q0 36.5 24.5 64.5t75.5 28h506q51 0 74.5 -28t23.5 -64.5t-23.5 -64.5t-74.5 -28h-131v-545q0 -72 -41 -102.5t-82 -30.5t-82 31t-41 102v545h-129q-51 0 -75.5 28t-24.5 64.5zM846 745v558q0 98 52 141t118 43q156 0 219 -158l133 -342l133 342 q63 158 219 158q66 0 118 -43t52 -141v-558q0 -72 -41 -102.5t-82 -30.5t-81.5 31t-40.5 102v381h-5l-149 -405q-41 -109 -123 -109t-123 109l-149 405h-4v-381q0 -72 -41 -102.5t-82 -30.5t-82 30.5t-41 102.5z" />
<glyph unicode="&#xe000;" horiz-adv-x="1100" d="M0 1100h1100v-1100h-1100v1100z" />
<glyph unicode="&#xfb01;" d="M27 972.5q0 98.5 118 98.5h52v150q0 154 73.5 221t239.5 67q180 0 180 -135q0 -51 -28.5 -80.5t-71.5 -29.5q-8 0 -26.5 3t-26.5 3q-41 0 -41 -66v-133h73q121 0 121 -98.5t-121 -98.5h-73v-751q0 -72 -40 -111t-110 -39t-109.5 39t-39.5 111v751h-52q-118 0 -118 98.5z M811 1353.5q0 63.5 45 109.5t110.5 46t110.5 -46t45 -109.5t-45 -109.5t-110.5 -46t-110.5 46t-45 109.5zM817 123v825q0 150 149.5 150t149.5 -150v-825q0 -150 -149.5 -150t-149.5 150z" />
<glyph unicode="&#xfb02;" d="M27 972.5q0 98.5 118 98.5h52v150q0 154 73.5 221t239.5 67q180 0 180 -135q0 -51 -28.5 -80.5t-71.5 -29.5q-8 0 -26.5 3t-26.5 3q-41 0 -41 -66v-133h73q121 0 121 -98.5t-121 -98.5h-73v-751q0 -72 -40 -111t-110 -39t-109.5 39t-39.5 111v751h-52q-118 0 -118 98.5z M817 123v1229q0 72 40 110.5t109.5 38.5t109.5 -39t40 -110v-1229q0 -72 -40 -111t-109.5 -39t-109.5 39t-40 111z" />
<glyph unicode="&#xfb03;" horiz-adv-x="2084" d="M1645 1353.5q0 63.5 46 109.5t109.5 46t109.5 -46t46 -109.5t-46 -109.5t-109.5 -46t-109.5 46t-46 109.5zM1651 123v825q0 150 149.5 150t149.5 -150v-825q0 -150 -149.5 -150t-149.5 150zM785 972.5q0 98.5 118 98.5h68v150q0 135 96.5 211.5t233.5 76.5 q86 0 141 -35.5t55 -107.5q0 -41 -28.5 -71.5t-67.5 -30.5q-12 0 -32.5 3t-32.5 3q-66 0 -66 -70v-129h92q135 0 135 -98.5t-135 -98.5h-92v-751q0 -72 -40 -111t-109.5 -39t-109.5 39t-40 111v751h-68q-118 0 -118 98.5zM27 972.5q0 98.5 118 98.5h68v150q0 135 96.5 211.5 t233.5 76.5q86 0 141 -35.5t55 -107.5q0 -41 -28.5 -71.5t-67.5 -30.5q-12 0 -32.5 3t-32.5 3q-66 0 -66 -70v-129h92q135 0 135 -98.5t-135 -98.5h-92v-751q0 -72 -40 -111t-109.5 -39t-109.5 39t-40 111v751h-68q-118 0 -118 98.5z" />
<glyph unicode="&#xfb04;" horiz-adv-x="2084" d="M1651 123v1229q0 72 40 110.5t109.5 38.5t109.5 -39t40 -110v-1229q0 -72 -40 -111t-109.5 -39t-109.5 39t-40 111zM785 972.5q0 98.5 118 98.5h68v150q0 135 96.5 211.5t233.5 76.5q86 0 141 -35.5t55 -107.5q0 -41 -28.5 -71.5t-67.5 -30.5q-12 0 -32.5 3t-32.5 3 q-66 0 -66 -70v-129h92q135 0 135 -98.5t-135 -98.5h-92v-751q0 -72 -40 -111t-109.5 -39t-109.5 39t-40 111v751h-68q-118 0 -118 98.5zM27 972.5q0 98.5 118 98.5h68v150q0 135 96.5 211.5t233.5 76.5q86 0 141 -35.5t55 -107.5q0 -41 -28.5 -71.5t-67.5 -30.5 q-12 0 -32.5 3t-32.5 3q-66 0 -66 -70v-129h92q135 0 135 -98.5t-135 -98.5h-92v-751q0 -72 -40 -111t-109.5 -39t-109.5 39t-40 111v751h-68q-118 0 -118 98.5z" />
</font>
</defs>
</svg>
